<?xml version="1.0" encoding="utf-8"?>
<!-- Generator: Adobe Illustrator 23.1.0, SVG Export Plug-In . SVG Version: 6.00 Build 0)  -->
<svg version="1.1" xmlns="http://www.w3.org/2000/svg" xmlns:xlink="http://www.w3.org/1999/xlink" x="0px" y="0px"
	 viewBox="0 0 3710 3710" style="enable-background:new 0 0 3710 3710;" xml:space="preserve">
<style type="text/css">
	.st0{fill:url(#SVGID_1_);}
	.st1{fill:#91B3FA;}
	.st2{fill:#BDD0FB;}
	.st3{fill:url(#SVGID_2_);}
	.st4{fill:url(#SVGID_3_);}
	.st5{fill:url(#SVGID_4_);}
	.st6{fill:url(#SVGID_5_);}
	.st7{fill:url(#SVGID_6_);}
	.st8{opacity:0.78;fill:#FFFFFF;}
	.st9{opacity:0.6;}
	.st10{fill:#FFFFFF;}
	.st11{fill:url(#SVGID_7_);}
	.st12{fill:url(#SVGID_8_);}
	.st13{fill:url(#SVGID_9_);}
	.st14{fill:url(#SVGID_10_);}
	.st15{fill:url(#SVGID_11_);}
	.st16{fill:url(#SVGID_12_);}
	.st17{fill:url(#SVGID_13_);}
	.st18{fill:url(#SVGID_14_);}
	.st19{fill:url(#SVGID_15_);}
	.st20{fill:url(#SVGID_16_);}
	.st21{fill:url(#SVGID_17_);}
	.st22{fill:url(#SVGID_18_);}
	.st23{fill:url(#SVGID_19_);}
	.st24{fill:url(#SVGID_20_);}
	.st25{fill:url(#SVGID_21_);}
	.st26{fill:url(#SVGID_22_);}
	.st27{fill:url(#SVGID_23_);}
	.st28{fill:url(#SVGID_24_);}
	.st29{fill:url(#SVGID_25_);}
	.st30{fill:url(#SVGID_26_);}
	.st31{fill:url(#SVGID_27_);}
	.st32{fill:url(#SVGID_28_);}
	.st33{fill:url(#SVGID_29_);}
</style>
<g id="Background">
	<g>
		<g>
		</g>
	</g>
</g>
<g id="Illustration">
	<g>
		<linearGradient id="SVGID_1_" gradientUnits="userSpaceOnUse" x1="3556.4443" y1="4018.7146" x2="1108.0449" y2="977.956">
			<stop  offset="0" style="stop-color:#DAE3FE"/>
			<stop  offset="1" style="stop-color:#E9EFFD"/>
		</linearGradient>
		<path class="st0" d="M2882.9,2819.5c-56.2,59.2-109.5,97.4-151.5,127.6c-494.2,354.6-1079,251.2-1203.2,226
			c-183.5-37.3-538.3-109.3-794.7-410.9c-388-456.3-327.6-1175.2-26.6-1649.8c55.1-86.8,345.9-568.6,936.9-645.9
			c357.7-46.8,774.7,47.5,1076.6,300.5C3354.2,1298.1,3309.1,2370.9,2882.9,2819.5z"/>
		<g>
			<g>
				<path class="st1" d="M2438.1,2021.2c0,0-8-338.3,147.8-428.8c155.8-90.5,452-147.1,463.1-632.8c6.5-284.3,13.5-408.7,18.3-462.9
					c1.8-21.1-17-38.2-37.8-34.3c-147.6,27.8-626.9,142.2-727.4,469.4C2182.9,1319.6,2438.1,2021.2,2438.1,2021.2z"/>
				<path class="st2" d="M2915.3,597.5c-162,144.5-349.3,400.1-449.1,655.8c-12.8,42.1-50.3,131.7-66.6,290.9
					c-14.5,132.8-7.3,273.1,10.3,365.9c1.1,5.9,6.8,9.7,12.6,8.6c10.1-1.9,8.8-12.8,8.7-12.4c-20.1-158.7-11.8-356.2,34.4-534.4
					C2524.6,1153.2,2656,941,2792,761.1l14-17.7c105.3-135.3,127.5-136.3,117.7-145.7C2921.3,595.4,2917.7,595.4,2915.3,597.5z"/>
			</g>
			<g>
				<path class="st2" d="M2243.4,2641.6c-21.1,10.3,199.6-267.1,268.7-702.8c32.6-205.3,33-462.6,150-561.7
					c97.3-82.5,428.6-30.4,537-10.6c13.5,2.5,18.1,19.6,7.6,28.4c-52,43.7-163.2,146.6-192.1,250.4
					c-38.2,136.8-168.2,223.8-284.6,247.3c-116.4,23.5-181.2,46.4-237.9,232.6C2435.2,2311.3,2303.3,2612.2,2243.4,2641.6z"/>
				<linearGradient id="SVGID_2_" gradientUnits="userSpaceOnUse" x1="2516.0469" y1="1711.2249" x2="3049.6797" y2="1711.2249">
					<stop  offset="0" style="stop-color:#DAE3FE"/>
					<stop  offset="1" style="stop-color:#E9EFFD"/>
				</linearGradient>
				<path class="st3" d="M3046.6,1424.2c-138.3,5.8-286.7,68.9-362.1,187.2l-7.1,11.3c-16.4,26.5-109.5,214.7-161.2,370.7
					c-0.6,1.9,0.4,4,2.4,4.7c3.3,1.1,5-2.5,4.6-2.2c36-88.1,87.7-199.9,128.9-283.4c44.2-91.2,75.1-152.9,175.9-212.1
					c112.2-63.7,219.3-70.3,219-70.2c1.6-0.2,2.8-1.6,2.7-3.3C3049.5,1425.3,3048.1,1424.1,3046.6,1424.2z"/>
			</g>
		</g>
		<g>
			<linearGradient id="SVGID_3_" gradientUnits="userSpaceOnUse" x1="1862.2874" y1="3041.019" x2="1738.5612" y2="-621.3378">
				<stop  offset="0" style="stop-color:#09005D"/>
				<stop  offset="1" style="stop-color:#1A0F91"/>
			</linearGradient>
			<path class="st4" d="M991.8,1111.6c0-87.4,70.8-158.2,158.2-158.2h1345.3c74.2,0,135.4,58.2,139.2,132.3l99.3,1950.4
				c3,58-42.7,106.9-100.8,108l-1541.8,28c-54.6,1-99.3-43-99.3-97.5V1111.6z"/>
			<path class="st1" d="M1316.5,3138.9L1316.5,3138.9l-172.6-2.2c-57.7-0.7-104.6-48.3-104.6-106v-260.5c0-2,1.6-3.7,3.7-3.7
				c2,0,3.7,1.6,3.7,3.7v260.5c0,53.7,43.7,97.9,97.3,98.6l172.5,2.2c2,0,3.7,1.7,3.6,3.7
				C1320.1,3137.3,1318.5,3138.9,1316.5,3138.9z"/>
			<linearGradient id="SVGID_4_" gradientUnits="userSpaceOnUse" x1="813.3113" y1="2522.4983" x2="2215.5691" y2="3413.3459">
				<stop  offset="0" style="stop-color:#A737D5"/>
				<stop  offset="1" style="stop-color:#EF497A"/>
			</linearGradient>
			<path class="st5" d="M1043,2693.2c-2,0-3.7-1.6-3.7-3.7v-42.2c0-2,1.6-3.7,3.7-3.7c2,0,3.7,1.6,3.7,3.7v42.2
				C1046.7,2691.5,1045,2693.2,1043,2693.2z"/>
			<g>
				<linearGradient id="SVGID_5_" gradientUnits="userSpaceOnUse" x1="3991.0322" y1="257.7309" x2="3001.3721" y2="1068.0555">
					<stop  offset="0" style="stop-color:#E1473D"/>
					<stop  offset="1" style="stop-color:#E9605A"/>
				</linearGradient>
				<path class="st6" d="M1102,983.4c-0.2-28,24.4-49.6,52.1-45.8c183.7,24.9,815.4,102,1337.7,61.9c23.8-1.8,44.5,16.2,45.8,40.1
					l104.1,1959.1c1.4,26.9-19.1,49.8-45.9,51.4c-219.7,13-1124.3,63.3-1447,29.5c-19.6-2.1-34.5-18.6-34.7-38.3L1102,983.4z"/>
				<linearGradient id="SVGID_6_" gradientUnits="userSpaceOnUse" x1="2569.7493" y1="1482.6138" x2="4123.9819" y2="333.545">
					<stop  offset="0" style="stop-color:#FEBBBA"/>
					<stop  offset="1" style="stop-color:#FF928E"/>
				</linearGradient>
				<path class="st7" d="M1123.7,1032.5c-0.2-26.9,23.5-47.7,50.2-44.1c176.8,24,784.7,98.1,1287.4,59.5c22.9-1.8,42.8,15.6,44,38.6
					l100.2,1885.3c1.4,25.9-18.4,48-44.2,49.5c-211.4,12.5-1082,60.9-1392.5,28.3c-18.9-2-33.2-17.9-33.4-36.9L1123.7,1032.5z"/>
				<path class="st8" d="M1287.3,1177.8l18.8,404.2c0.6,13.4,11.5,24.1,24.9,24.5c74.9,2.1,308.1,7.8,439.8,0.9
					c14.9-0.8,26.7-12.8,27.2-27.7c2.5-75.8,8-296.4-9.3-388.7c-2.8-14.9-15.6-25.8-30.7-26.3l-442.5-15.5
					C1299.6,1148.7,1286.6,1161.9,1287.3,1177.8z"/>
				<g class="st9">
					<path class="st10" d="M2395,1213c8.3,0,14.9-6.1,14.6-13.6c-0.2-7.5-7.2-13.7-15.4-13.8l-486.6-8.7c-8.3-0.1-12.8,6.1-10,13.9
						l2.8,8c2.7,7.8,11.8,14.2,20,14.2H2395z"/>
				</g>
				<g class="st9">
					<path class="st10" d="M1907.6,1252.3c-8.3-0.1-12.8,6.1-10,13.9l2.8,8c2.7,7.8,11.8,14.2,20,14.2H2395
						c8.3,0,14.9-6.1,14.6-13.6c-0.2-7.5-7.2-13.7-15.4-13.8L1907.6,1252.3z"/>
				</g>
				<g class="st9">
					<path class="st10" d="M1907.6,1328.8c-8.3-0.1-12.8,6.1-10,13.9l2.8,8c2.7,7.8,11.8,14.2,20,14.2H2395
						c8.3,0,14.9-6.1,14.6-13.6c-0.2-7.5-7.2-13.7-15.4-13.8L1907.6,1328.8z"/>
				</g>
				<g class="st9">
					<path class="st10" d="M2442.1,1733.5c8.3,0,14.6-6.1,14.1-13.6c-0.5-7.5-7.7-13.6-15.9-13.7l-1138.1-9
						c-8.3-0.1-10.8,5.2-5.7,11.6l10.2,12.8c5.2,6.5,16.1,11.8,24.4,11.8H2442.1z"/>
				</g>
				<g class="st9">
					<path class="st10" d="M1302.2,1772.6c-8.3-0.1-10.8,5.2-5.7,11.6l10.2,12.8c5.2,6.5,16.1,11.8,24.4,11.8h1111
						c8.3,0,14.6-6.1,14.1-13.6c-0.5-7.5-7.7-13.6-15.9-13.7L1302.2,1772.6z"/>
				</g>
				<linearGradient id="SVGID_7_" gradientUnits="userSpaceOnUse" x1="1136.8679" y1="1788.3906" x2="2431.894" y2="2823.5847">
					<stop  offset="0" style="stop-color:#A737D5"/>
					<stop  offset="1" style="stop-color:#EF497A"/>
				</linearGradient>
				<path class="st11" d="M1297.8,1898.4c27.3-2.1,78.5-3.1,106.7-3.5c11.9-0.2,22.4,7.9,25.2,19.5c5.4,22.5,12.9,61.7,12,103.1
					c-0.3,12.4-10.5,22.3-22.9,22.2l-104-1.1c-12.8-0.1-23.4-9.9-24.6-22.6l-9.1-97.8C1280.2,1908.2,1287.7,1899.2,1297.8,1898.4z"
					/>
				<g class="st9">
					<path class="st10" d="M1489.4,1938.6c-8.3-0.3-14,6.1-12.8,14.2l2.7,18.2c1.2,8.2,9,14.9,17.3,14.9h253.9c8.3,0,15-6.8,14.9-15
						l-0.1-5.7c-0.1-8.3-6.9-15.3-15.2-15.7L1489.4,1938.6z"/>
				</g>
				<linearGradient id="SVGID_8_" gradientUnits="userSpaceOnUse" x1="1989.2299" y1="1924.5427" x2="3510.2493" y2="848.5372">
					<stop  offset="0" style="stop-color:#FF928E"/>
					<stop  offset="1" style="stop-color:#FE7062"/>
				</linearGradient>
				<path class="st12" d="M1864.2,1898.4c27.3-2.1,78.5-3.1,106.7-3.5c11.9-0.2,22.4,7.9,25.2,19.5c5.4,22.5,12.9,61.7,12,103.1
					c-0.3,12.4-10.5,22.3-22.9,22.2l-104-1.1c-12.8-0.1-23.4-9.9-24.6-22.6l-9.1-97.8C1846.6,1908.2,1854.1,1899.2,1864.2,1898.4z"
					/>
				<g class="st9">
					<path class="st10" d="M2055.7,1938.6c-8.3-0.3-14,6.1-12.8,14.2l2.7,18.2c1.2,8.2,9,14.9,17.3,14.9h253.9c8.3,0,15-6.8,14.9-15
						l-0.1-5.7c-0.1-8.3-6.9-15.3-15.2-15.7L2055.7,1938.6z"/>
				</g>
				<g>
					<g class="st9">
						<path class="st10" d="M1266,2233c3.6,10.5,15.8,17.8,29.8,17.7l1138.8-7.6c12.9-0.1,23.2-8.4,22.9-18.4
							c-0.3-9.8-10.5-17.6-23-17.6l-1138.8-4C1275.6,2203.1,1260.8,2217.9,1266,2233z"/>
					</g>
					<g class="st9">
						<path class="st10" d="M1266,2438.6c3.6,10.5,15.8,17.8,29.8,17.7l1138.8-7.6c12.9-0.1,23.2-8.4,22.9-18.4
							c-0.3-9.8-10.5-17.6-23-17.6l-1138.8-4C1275.6,2408.7,1260.8,2423.5,1266,2438.6z"/>
					</g>
					<g class="st9">
						<path class="st10" d="M1266,2644.2c3.6,10.5,15.8,17.8,29.8,17.7l1138.8-7.6c12.9-0.1,23.2-8.4,22.9-18.4
							c-0.3-9.8-10.5-17.6-23-17.6l-1138.8-4C1275.6,2614.3,1260.8,2629.1,1266,2644.2z"/>
					</g>
					<g class="st9">
						<path class="st10" d="M1266,2849.8L1266,2849.8c3.6,10.5,15.8,17.8,29.8,17.7l1138.8-7.6c12.9-0.1,23.2-8.4,22.9-18.4
							c-0.3-9.8-10.5-17.6-23-17.6l-1138.8-4C1275.6,2819.9,1260.8,2834.7,1266,2849.8z"/>
					</g>
				</g>
			</g>
			<linearGradient id="SVGID_9_" gradientUnits="userSpaceOnUse" x1="2056.1641" y1="486.6392" x2="1437.3923" y2="1300.6188">
				<stop  offset="0" style="stop-color:#09005D"/>
				<stop  offset="1" style="stop-color:#1A0F91"/>
			</linearGradient>
			<path class="st13" d="M1906.1,687.4c-48.6-33.8-90.8-33.1-120.6-24.4c-27.1,8-44.7,34.2-42.1,62.4l12.8,140l152.6,13.5
				C1908.8,879,2001.4,753.7,1906.1,687.4z M1839,800.4c-21,0-38.1-17-38.1-38.1s17-38.1,38.1-38.1c21,0,38.1,17,38.1,38.1
				S1860,800.4,1839,800.4z"/>
			<path class="st1" d="M1771.4,806.6c-1.9,0-3.5-1.4-3.7-3.3l-2-22.3c-0.2-2,1.3-3.8,3.3-4c2.1-0.2,3.8,1.3,4,3.3l2,22.3
				c0.2,2-1.3,3.8-3.3,4C1771.6,806.6,1771.5,806.6,1771.4,806.6z M1767.4,762.9c-1.9,0-3.5-1.4-3.7-3.3l-1.6-16.9
				c-2.5-26.8,14.4-51.8,40.2-59.4c18.2-5.4,37-6.1,55.8-2.3c2,0.4,3.3,2.4,2.9,4.3c-0.4,2-2.3,3.3-4.3,2.9
				c-17.6-3.6-35.2-2.9-52.2,2.1c-22.4,6.6-37,28.3-34.9,51.7l1.6,16.9c0.2,2-1.3,3.8-3.3,4C1767.6,762.9,1767.5,762.9,1767.4,762.9
				z"/>
			<linearGradient id="SVGID_10_" gradientUnits="userSpaceOnUse" x1="2124.0386" y1="538.2344" x2="1505.2662" y2="1352.2147">
				<stop  offset="0" style="stop-color:#09005D"/>
				<stop  offset="1" style="stop-color:#1A0F91"/>
			</linearGradient>
			<path class="st14" d="M1547.9,955.9v-70.4c0-24.3,20.1-43.8,44.4-42.9l485.3,16.6c21.5,0.7,39,17.7,40.3,39.3l4.1,67.6
				L1547.9,955.9z"/>
			<path class="st1" d="M1728.8,869.1h-20.9c-2,0-3.7-1.6-3.7-3.7c0-2,1.6-3.7,3.7-3.7h20.9c2,0,3.7,1.6,3.7,3.7
				C1732.5,867.5,1730.9,869.1,1728.8,869.1z"/>
			<path class="st1" d="M1574.1,933.8c-2,0-3.7-1.6-3.7-3.7v-28.5c0-22,17.9-39.9,39.9-39.9h76.7c2,0,3.7,1.6,3.7,3.7
				c0,2-1.6,3.7-3.7,3.7h-76.7c-17.9,0-32.5,14.6-32.5,32.5v28.5C1577.8,932.2,1576.2,933.8,1574.1,933.8z"/>
			<linearGradient id="SVGID_11_" gradientUnits="userSpaceOnUse" x1="2046.0625" y1="588.0245" x2="1618.8135" y2="1372.5406">
				<stop  offset="0" style="stop-color:#FF928E"/>
				<stop  offset="1" style="stop-color:#FE7062"/>
			</linearGradient>
			<path class="st15" d="M1350.1,973.7c1.2-24.4,21.3-43.5,45.7-43.5l848.7,0c30.5,0,56.6,22,61.8,52l0.7,4.1
				c5.7,32.9-19.7,63.1-53.1,63.1h-870.7c-20,0-35.9-16.7-35-36.7L1350.1,973.7z"/>
		</g>
		<g>
			<g>
				<linearGradient id="SVGID_12_" gradientUnits="userSpaceOnUse" x1="1372.4312" y1="2666.127" x2="1214.6838" y2="2888.634">
					<stop  offset="0" style="stop-color:#09005D"/>
					<stop  offset="1" style="stop-color:#1A0F91"/>
				</linearGradient>
				<rect x="498.4" y="2896.3" class="st16" width="1220" height="284.3"/>
				<linearGradient id="SVGID_13_" gradientUnits="userSpaceOnUse" x1="1811.3436" y1="2140.9436" x2="724.6689" y2="3628.9688">
					<stop  offset="0" style="stop-color:#4F52FF"/>
					<stop  offset="1" style="stop-color:#4042E2"/>
				</linearGradient>
				<path class="st17" d="M1734.8,3162.4h-1254c-4.3,0-7.7-3.5-7.7-7.7v-101.5H1740v104C1740,3160.1,1737.7,3162.4,1734.8,3162.4z"
					/>
				<linearGradient id="SVGID_14_" gradientUnits="userSpaceOnUse" x1="1113.1282" y1="2842.6633" x2="1143.2015" y2="2217.7988">
					<stop  offset="0" style="stop-color:#4F52FF"/>
					<stop  offset="1" style="stop-color:#4042E2"/>
				</linearGradient>
				<path class="st18" d="M1732.3,3038.5H482.6c-5.3,0-9.6-4.3-9.6-9.6v-99.6H1740v101.5C1740,3035,1736.5,3038.5,1732.3,3038.5z"/>
				<linearGradient id="SVGID_15_" gradientUnits="userSpaceOnUse" x1="2076.3777" y1="1929.5746" x2="1798.4008" y2="2210.9009">
					<stop  offset="0" style="stop-color:#09005D"/>
					<stop  offset="1" style="stop-color:#1A0F91"/>
				</linearGradient>
				<path class="st19" d="M1740,2929.3H473v-33c0-4.4,3.5-7.9,7.9-7.9h1251c4.4,0,8,3.6,8,8V2929.3z"/>
			</g>
			<g>
				<linearGradient id="SVGID_16_" gradientUnits="userSpaceOnUse" x1="3372.9241" y1="3248.5491" x2="3628.6421" y2="3311.6482">
					<stop  offset="0" style="stop-color:#4F52FF"/>
					<stop  offset="1" style="stop-color:#4042E2"/>
				</linearGradient>
				<path class="st20" d="M2853.5,3023.7c41.1,20,55.5,74.8,32.3,122.5s-75.3,70.2-116.3,50.2s-55.5-74.8-32.3-122.5
					S2812.5,3003.7,2853.5,3023.7z"/>
				<linearGradient id="SVGID_17_" gradientUnits="userSpaceOnUse" x1="2188.2837" y1="2730.5969" x2="2556.9666" y2="2961.4546">
					<stop  offset="0" style="stop-color:#4F52FF"/>
					<stop  offset="1" style="stop-color:#4042E2"/>
				</linearGradient>
				<path class="st21" d="M2787.1,3044.7l-42,86.5c-1.5,3.1-5.3,4.4-8.4,2.9l-52.6-25.6c-3.1-1.5-4.4-5.3-2.9-8.4l42-86.5
					c1.5-3.1,5.3-4.4,8.4-2.9l52.6,25.6C2787.3,3037.8,2788.6,3041.6,2787.1,3044.7z"/>
				
					<linearGradient id="SVGID_18_" gradientUnits="userSpaceOnUse" x1="3157.0735" y1="3124.5593" x2="1356.9143" y2="2247.8342" gradientTransform="matrix(0.9989 -4.690000e-02 4.690000e-02 0.9989 -40.006 301.738)">
					<stop  offset="0" style="stop-color:#4F52FF"/>
					<stop  offset="1" style="stop-color:#4042E2"/>
				</linearGradient>
				<path class="st22" d="M2733.2,3003c-7.5,38.7-24.7,73.3-50.9,104c-14.1,16.6-36.8,24-59.3,19.5
					c-215.4-43.2-666.7-322.2-1105.1-565.9c-29.1-16.2-49.1-34.5-35.4-62.6l30.2-62.2c13.6-28,46.2-12.2,76.7,0.3
					c463.7,190.5,955.5,356.6,1124.3,510.2C2729.9,2961.1,2737.2,2982.5,2733.2,3003z"/>
				<linearGradient id="SVGID_19_" gradientUnits="userSpaceOnUse" x1="1238.9219" y1="2275.593" x2="1518.7312" y2="2475.95">
					<stop  offset="0" style="stop-color:#09005D"/>
					<stop  offset="1" style="stop-color:#1A0F91"/>
				</linearGradient>
				<path class="st23" d="M1583,2372.3l-102.6,211.1c-1.4,3-5,4.2-8,2.8l-54.1-26.3c-3-1.4-4.2-5-2.8-8l102.6-211.1
					c1.4-3,5-4.2,8-2.8l54.1,26.3C1583.3,2365.7,1584.5,2369.3,1583,2372.3z"/>
				<linearGradient id="SVGID_20_" gradientUnits="userSpaceOnUse" x1="1969.4945" y1="2631.9744" x2="1066.8605" y2="2261.0979">
					<stop  offset="0" style="stop-color:#4F52FF"/>
					<stop  offset="1" style="stop-color:#4042E2"/>
				</linearGradient>
				<path class="st24" d="M1126.9,2161.6l-102.6,211.1c-1.4,3-5,4.2-8,2.8l-54.1-26.3c-3-1.4-4.2-5-2.8-8l102.6-211.1
					c1.4-3,5-4.2,8-2.8l54.1,26.3C1127.1,2155,1128.3,2158.6,1126.9,2161.6z"/>
				<linearGradient id="SVGID_21_" gradientUnits="userSpaceOnUse" x1="1015.1435" y1="2278.6313" x2="1438.572" y2="2487.855">
					<stop  offset="0" style="stop-color:#4F52FF"/>
					<stop  offset="1" style="stop-color:#4042E2"/>
				</linearGradient>
				<polygon class="st25" points="1628.1,2166.2 1303.8,2833 852,2613.3 1176.3,1946.5 				"/>
				<linearGradient id="SVGID_22_" gradientUnits="userSpaceOnUse" x1="730.0428" y1="2978.0322" x2="979.1183" y2="2798.6978">
					<stop  offset="0" style="stop-color:#09005D"/>
					<stop  offset="1" style="stop-color:#1A0F91"/>
				</linearGradient>
				<polygon class="st26" points="1320.9,2797.9 1280.1,2881.7 828.3,2662 869.1,2578.2 				"/>
				<linearGradient id="SVGID_23_" gradientUnits="userSpaceOnUse" x1="873.4936" y1="3265.7556" x2="1019.6181" y2="2870.5559">
					<stop  offset="0" style="stop-color:#4F52FF"/>
					<stop  offset="1" style="stop-color:#4042E2"/>
				</linearGradient>
				<path class="st27" d="M1298.5,2843.9l-20.3,41.7c-6.2,12.7-20.7,19.1-34.3,15.1c-140.8-41.8-277.1-107-408.3-198.8
					c-11.5-8-15.4-23.2-9.3-35.9l20.4-41.9L1298.5,2843.9z"/>
				<linearGradient id="SVGID_24_" gradientUnits="userSpaceOnUse" x1="762.8034" y1="1838.7252" x2="913.1592" y2="2221.4497">
					<stop  offset="0" style="stop-color:#09005D"/>
					<stop  offset="1" style="stop-color:#1A0F91"/>
				</linearGradient>
				<path class="st28" d="M1344.1,2781l-16.9,34.8c-1.5,3.1-5.2,4.4-8.4,2.9l-473-230c-3.1-1.5-4.4-5.2-2.9-8.4l16.9-34.8
					c1.5-3.1,5.2-4.4,8.4-2.9l473,230C1344.4,2774.2,1345.7,2777.9,1344.1,2781z"/>
				<linearGradient id="SVGID_25_" gradientUnits="userSpaceOnUse" x1="859.7351" y1="3345.5659" x2="1078.6178" y2="2723.1169">
					<stop  offset="0" style="stop-color:#4F52FF"/>
					<stop  offset="1" style="stop-color:#4042E2"/>
				</linearGradient>
				<path class="st29" d="M1341.4,2786.6l-11.5,23.6c-1.4,2.8-4.8,4-7.6,2.6l-474.1-230.5c-2.8-1.4-4-4.8-2.6-7.6l11.5-23.6
					c1.4-2.8,4.8-4,7.6-2.6l474.1,230.5C1341.6,2780.4,1342.8,2783.8,1341.4,2786.6z"/>
				
					<linearGradient id="SVGID_26_" gradientUnits="userSpaceOnUse" x1="27.3128" y1="7303.5747" x2="299.8357" y2="6933.0098" gradientTransform="matrix(-0.4373 0.8993 0.8993 0.4373 5523.7446 -3164.8772)">
					<stop  offset="0" style="stop-color:#09005D"/>
					<stop  offset="1" style="stop-color:#1A0F91"/>
				</linearGradient>
				<polygon class="st30" points="1630.7,2160.7 1671.5,2076.9 1219.7,1857.2 1178.9,1941 				"/>
				<linearGradient id="SVGID_27_" gradientUnits="userSpaceOnUse" x1="1829.4071" y1="1347.5458" x2="1626.8253" y2="1676.3258">
					<stop  offset="0" style="stop-color:#4F52FF"/>
					<stop  offset="1" style="stop-color:#4042E2"/>
				</linearGradient>
				<path class="st31" d="M1653.1,2114.8l20.3-41.7c6.2-12.7,2.3-28.1-9.3-36.3c-119.9-85-255.3-151.9-408.5-198.4
					c-13.4-4.1-27.8,2.2-33.9,14.8l-20.4,41.9L1653.1,2114.8z"/>
				<linearGradient id="SVGID_28_" gradientUnits="userSpaceOnUse" x1="1318.1072" y1="1447.3643" x2="1367.9265" y2="1825.306">
					<stop  offset="0" style="stop-color:#09005D"/>
					<stop  offset="1" style="stop-color:#1A0F91"/>
				</linearGradient>
				<path class="st32" d="M1631.8,2189.5l16.9-34.8c1.5-3.1,0.2-6.8-2.9-8.4l-473-230c-3.1-1.5-6.8-0.2-8.4,2.9l-16.9,34.8
					c-1.5,3.1-0.2,6.8,2.9,8.4l473,230C1626.6,2193.9,1630.3,2192.6,1631.8,2189.5z"/>
				<linearGradient id="SVGID_29_" gradientUnits="userSpaceOnUse" x1="1866.8588" y1="1390.7183" x2="1561.5724" y2="1822.9221">
					<stop  offset="0" style="stop-color:#4F52FF"/>
					<stop  offset="1" style="stop-color:#4042E2"/>
				</linearGradient>
				<path class="st33" d="M1634.5,2183.9l11.5-23.6c1.4-2.8,0.2-6.2-2.6-7.6l-474.1-230.5c-2.8-1.4-6.2-0.2-7.6,2.6l-11.5,23.6
					c-1.4,2.8-0.2,6.2,2.6,7.6l474.1,230.5C1629.8,2187.9,1633.1,2186.7,1634.5,2183.9z"/>
			</g>
		</g>
	</g>
</g>
</svg>
