<?xml version="1.0" encoding="utf-8"?>
<!-- Generator: Adobe Illustrator 23.1.0, SVG Export Plug-In . SVG Version: 6.00 Build 0)  -->
<svg version="1.1" xmlns="http://www.w3.org/2000/svg" xmlns:xlink="http://www.w3.org/1999/xlink" x="0px" y="0px"
	 viewBox="0 0 1122 1122" style="enable-background:new 0 0 1122 1122;" xml:space="preserve">
<style type="text/css">
	.st0{fill:#404041;}
	.st1{fill:#272525;}
	.st2{fill:#FFFFFF;}
	.st3{fill:#4F74A5;}
	.st4{fill:#C27E77;}
	.st5{fill:#424243;}
	.st6{fill:#898989;}
	.st7{fill:#B76284;}
	.st8{fill:#444445;}
	.st9{fill:#543E27;}
	.st10{fill:#EDC3B4;}
	.st11{fill:#F3D3C5;}
	.st12{fill:#DBA999;}
	.st13{fill:#EBD461;}
	.st14{fill:#D3ACA4;}
	.st15{fill:#59595B;}
	.st16{opacity:0.48;}
	.st17{fill:#484849;}
	.st18{opacity:0.49;fill:#484849;}
</style>
<g id="BG">
</g>
<g id="Graphic">
	<g>
		<g>
			<path class="st0" d="M460.2,537.5l5.3,27.8l-39.1,18.7l-6.1-33.1C420.3,550.9,438.2,558.8,460.2,537.5z"/>
			<path class="st1" d="M425,586.6c-0.8-0.4-1.3-1.2-1.5-2.1l-6.1-33.1c-0.2-1.1,0.2-2.2,1.1-2.9c0.9-0.7,2-0.8,3-0.4
				c0.6,0.3,16.5,6.7,36.7-12.8c0.8-0.8,1.9-1,3-0.7c1,0.3,1.8,1.2,2,2.3l5.3,27.8c0.3,1.3-0.4,2.6-1.6,3.2l-39.1,18.7
				C426.8,587,425.8,587,425,586.6C425,586.6,425,586.6,425,586.6z M424,554.9l4.6,24.7l33.5-16l-3.8-20.3
				C443.5,555.6,430.7,556,424,554.9z"/>
		</g>
		<g>
			<g>
				<path class="st2" d="M409.4,628.3c7.5-44.3,28-73,46.7-69.8c18.7,3.2,28.5,37,21,81.3c-3.1,17.9-8.4,34.1-14.8,46.7l-54.3-9.2
					C406.1,663.2,406.4,646.2,409.4,628.3z"/>
				<path class="st1" d="M462.8,688.8c-0.3,0.1-0.6,0.1-0.8,0l-54.3-9.2c-1-0.2-1.8-1-1.9-2c-2-14.9-1.5-32.1,1.5-49.7
					c7.6-44.4,28.8-75.2,49.4-71.7c10.1,1.7,18,11.3,22.2,26.9c4.1,15.3,4.4,35.6,0.7,57.1c-3,17.6-8.2,34-15.1,47.4
					C464.1,688.2,463.5,688.7,462.8,688.8z M410.1,675.2l50.9,8.7c6.3-12.7,11-28,13.8-44.5c3.5-20.8,3.3-40.4-0.6-55.1
					c-3.7-13.8-10.3-22.1-18.5-23.5c-17.7-3-37,26.8-44,67.9l0,0C408.9,645.1,408.4,661.2,410.1,675.2z M409.4,628.3L409.4,628.3
					L409.4,628.3z"/>
			</g>
			<g>
				<path class="st0" d="M462.3,686.5c-9.5,18.6-21.5,29.6-32.7,27.7c-11.1-1.9-18.8-16.3-21.7-36.9L462.3,686.5z"/>
				<path class="st1" d="M435.7,716.4c-2.2,0.4-4.3,0.5-6.4,0.1c-11.9-2-20.5-16.2-23.6-38.9c-0.1-0.7,0.2-1.5,0.7-2
					c0.5-0.5,1.3-0.7,2-0.6l54.3,9.2c0.7,0.1,1.4,0.6,1.7,1.3c0.3,0.7,0.3,1.5,0,2.1C455.8,704.3,445.6,714.4,435.7,716.4z
					 M410.8,680.1c3.1,18.4,10.2,30.2,19.3,31.8c9.1,1.6,19.7-7.2,28.7-23.6L410.8,680.1z"/>
			</g>
			<g>
				
					<ellipse transform="matrix(0.1677 -0.9858 0.9858 0.1677 -226.0724 947.0404)" class="st3" cx="447.8" cy="607.4" rx="23.8" ry="20.2"/>
				<path class="st1" d="M450.6,633.1c-2.3,0.5-4.7,0.5-7.1,0.1c-12.3-2.1-20.3-15.3-17.9-29.6c1.2-6.8,4.5-12.9,9.5-17
					c5.1-4.2,11.1-6,17.2-5c12.3,2.1,20.3,15.3,17.9,29.6C468.1,622.6,460,631.2,450.6,633.1z M445.9,586.3
					c-2.8,0.5-5.5,1.9-7.9,3.9c-4.1,3.4-6.9,8.5-7.9,14.2l0,0c-2,11.7,4.3,22.5,14,24.2c9.7,1.6,19.2-6.5,21.2-18.2
					c2-11.7-4.3-22.5-14-24.2C449.6,585.9,447.8,586,445.9,586.3z M427.9,604L427.9,604L427.9,604z"/>
			</g>
		</g>
		<g>
			<path class="st2" d="M263.1,642L263.1,642c47.6,110.7,113.2,113.5,157.3-0.8l0.9-2.1c13.3-29.7-5.4-65.3-33.7-64.5l-92.7,2.6
				C267.2,577.9,250,613.1,263.1,642z"/>
			<path class="st1" d="M343.5,729.1c-29.9,0-59.4-30.4-83.2-85.9v0c-7.3-16.1-6.2-35.2,3-50c7.4-11.9,18.9-18.9,31.6-19.3l92.7-2.6
				c12.9-0.3,24.8,6.2,32.7,18c9.9,14.8,11.4,34.3,4,50.9l-0.9,2.1c-27.3,70.9-58,86.3-79,86.7C344,729.1,343.8,729.1,343.5,729.1z
				 M388.5,577.7c-0.3,0-0.5,0-0.8,0l-92.7,2.6c-10.5,0.3-20.1,6.2-26.4,16.3c-8.1,13-9.1,29.9-2.6,44.1c0,0,0,0,0,0.1
				c22.8,53,50.3,82.1,77.4,82.1c0.2,0,0.5,0,0.7,0c26.9-0.5,52.9-29.9,73.3-82.8l1-2.2c6.6-14.7,5.2-31.9-3.5-44.9
				C408.5,583.2,398.9,577.7,388.5,577.7z"/>
		</g>
		<g>
			<path class="st2" d="M442.4,477c-9.6,0.9-27.6,5-41.7,22.7c-3.8,4.8-4.9,11.3-3,17.2c4.6,14.1,16.3,39,39.6,32.7
				c30.6-8.2,33.4-33.6,14.8-67.4C450.3,478.7,446.4,476.6,442.4,477z"/>
			<path class="st1" d="M401.3,532.8c-2.4-4.3-4.5-9.3-6.4-15c-2.3-6.9-1-14.4,3.5-20c14.8-18.6,33.7-22.9,43.7-23.8c0,0,0,0,0,0
				c5.2-0.5,10.1,2.2,12.7,6.8c0,0,0,0,0,0c11.7,21.3,14.9,38.7,9.4,51.7c-4.1,9.7-12.9,16.4-26,19.9
				C423.4,556.5,410.5,549.4,401.3,532.8z M442.7,480c-9.1,0.8-26.2,4.8-39.6,21.6c-3.2,4-4.1,9.4-2.5,14.4
				c4.6,13.9,15.3,36.3,36,30.8c11.3-3,18.7-8.6,22.1-16.5c4.7-11.1,1.6-27.2-9.1-46.6c0,0,0,0,0,0
				C448.2,481.2,445.5,479.7,442.7,480L442.7,480z"/>
		</g>
		<g>
			<polygon class="st0" points="439.7,518.1 244.7,514.2 244.7,473.9 439.7,473.9 			"/>
			<path class="st1" d="M439.7,521.7C439.7,521.7,439.6,521.7,439.7,521.7l-195.1-3.9c-1.9,0-3.5-1.6-3.5-3.5v-40.3
				c0-2,1.6-3.5,3.5-3.5h195c2,0,3.5,1.6,3.5,3.5v44.2c0,1-0.4,1.9-1.1,2.5C441.5,521.3,440.6,521.7,439.7,521.7z M248.2,510.7
				l188,3.8v-37h-188V510.7z"/>
		</g>
		<g>
			<path class="st2" d="M443.6,485.6H241.9l3.4-69.7c2.5-52,45.4-92.9,97.5-92.9h0c52.1,0,95,40.9,97.5,92.9L443.6,485.6z"/>
			<g>
				<path class="st4" d="M437.8,421.4c-3-1.3-6.5-2.1-10.2-2.1c-11.8,0-21.3,7.6-21.3,16.9c0,9.3,9.5,16.9,21.3,16.9
					c3.7,0,7.2-0.8,10.2-2.1V421.4z"/>
			</g>
			<g>
				<ellipse class="st4" cx="307.4" cy="436.2" rx="21.1" ry="16.9"/>
			</g>
			<g>
				<path class="st5" d="M434.8,389.8c-1.8-4.4-5-9.1-7.4-13.8H299.6c-3.6,0-6.6,3-6.6,6.6v37.6c0,3.6,3,6.6,6.6,6.6h139.3
					c0.7,0,1.3-0.1,2-0.3v-19.6C439,401.1,437.1,395.4,434.8,389.8z"/>
				<path class="st1" d="M299.6,424.6c-2.5,0-4.5-2-4.5-4.5v-37.6c0-2.5,2-4.5,4.5-4.5h128.9c-0.8-1.4-1.5-2.8-2.2-4.2H299.6
					c-4.8,0-8.7,3.9-8.7,8.7v37.6c0,4.8,3.9,8.7,8.7,8.7h139.3c0.7,0,1.3-0.1,1.9-0.2v-4.5c-0.6,0.3-1.2,0.5-1.9,0.5H299.6z"/>
			</g>
			<g>
				<path class="st6" d="M394.7,391h-83c-2.3,0-4.2-1.9-4.2-4.2l0,0c0-2.3,1.9-4.2,4.2-4.2h83c2.3,0,4.2,1.9,4.2,4.2l0,0
					C398.9,389.2,397,391,394.7,391z"/>
			</g>
			<g>
				<circle class="st6" cx="409.9" cy="386.8" r="4.2"/>
			</g>
			<g>
				<path class="st1" d="M335.7,400.9c0,3.1-2.5,5.6-5.6,5.6s-5.6-2.5-5.6-5.6s2.5-5.6,5.6-5.6S335.7,397.8,335.7,400.9z"/>
			</g>
			<g>
				<path class="st1" d="M412.6,400.9c0,3.1-2.5,5.6-5.6,5.6s-5.6-2.5-5.6-5.6s2.5-5.6,5.6-5.6S412.6,397.8,412.6,400.9z"/>
			</g>
			<path class="st1" d="M443.6,489.5H241.9c-1.1,0-2.1-0.4-2.9-1.2c-0.7-0.8-1.1-1.8-1.1-2.9l3.4-69.7
				c2.6-54.2,47.2-96.7,101.5-96.7c54.3,0,98.8,42.5,101.5,96.7l3.4,69.7c0,1.1-0.3,2.1-1.1,2.9
				C445.7,489.1,444.7,489.5,443.6,489.5z M246,481.6h193.4l-3.2-65.6c-2.4-50-43.5-89.1-93.5-89.1c-50,0-91.1,39.2-93.5,89.1
				L246,481.6z"/>
		</g>
		<g>
			<path class="st2" d="M236.8,511.4c0.1,2.5,0.3,5.1,0.7,7.6l18.2,113.3h38c0-14.4,21.3-26,47.6-26c26.3,0,47.6,11.7,47.6,26h41.6
				L445.3,517c0.2-1.8,0.4-3.7,0.5-5.6H236.8z"/>
			<path class="st1" d="M430.5,636.3h-41.6c-2.2,0-3.9-1.8-3.9-3.9c0-12-20-22.1-43.7-22.1c-23.7,0-43.7,10.1-43.7,22.1
				c0,2.2-1.8,3.9-3.9,3.9h-38c-1.9,0-3.6-1.4-3.9-3.3l-18.2-113.3c-0.4-2.4-0.6-5-0.7-8.1c0-1.1,0.4-2.1,1.1-2.9
				c0.7-0.8,1.8-1.2,2.8-1.2h209c1.1,0,2.1,0.4,2.8,1.2c0.7,0.8,1.1,1.8,1.1,2.9c-0.1,2-0.2,3.9-0.5,5.9l-14.8,115.4
				C434.1,634.8,432.5,636.3,430.5,636.3z M392.4,628.5H427l14.4-112c0-0.4,0.1-0.8,0.1-1.1H241c0.1,1.1,0.2,2.1,0.4,3l17.6,110
				h31.1c3.2-14.9,24.5-26,51.1-26C367.9,602.4,389.2,613.6,392.4,628.5z"/>
		</g>
		<g>
			<rect x="305.8" y="534.5" class="st3" width="117.9" height="30.2"/>
			<path class="st1" d="M423.7,568.7H305.8c-2.2,0-3.9-1.8-3.9-3.9v-30.2c0-2.2,1.8-3.9,3.9-3.9h117.9c2.2,0,3.9,1.8,3.9,3.9v30.2
				C427.6,566.9,425.8,568.7,423.7,568.7z M309.7,560.8h110v-22.3h-110V560.8z"/>
		</g>
		<g>
			
				<rect x="289.1" y="519.2" transform="matrix(0.764 -0.6452 0.6452 0.764 -298.6437 332.4724)" class="st0" width="32.3" height="110.7"/>
			<path class="st1" d="M328.6,630.4c-0.9,0-1.8-0.4-2.4-1.1l-71.4-84.6c-1.1-1.3-0.9-3.3,0.4-4.4l24.7-20.8
				c0.6-0.5,1.5-0.8,2.3-0.7c0.8,0.1,1.6,0.5,2.1,1.1l71.4,84.6c0.5,0.6,0.8,1.5,0.7,2.3c-0.1,0.8-0.5,1.6-1.1,2.1l-24.7,20.8
				C330,630.1,329.3,630.4,328.6,630.4z M261.6,543l67.4,79.8l19.9-16.8l-67.4-79.8L261.6,543z"/>
		</g>
		<g>
			<path class="st2" d="M239.5,510.2c7.5-6.1,23.2-15.8,45.6-13c6.1,0.8,11.5,4.7,14.2,10.2c6.6,13.3,15.7,39.2-5.4,51.1
				c-27.6,15.5-47.4-0.6-57.8-37.7C235.1,517,236.4,512.8,239.5,510.2z"/>
			<path class="st1" d="M307.9,521.3c5.1,18.2,0.8,32.4-12.5,39.9c-11.9,6.7-22.8,8-32.5,4c-13.1-5.4-23-20-29.6-43.5c0,0,0,0,0,0
				c-1.4-5.1,0.3-10.4,4.3-13.7c7.8-6.3,24.3-16.5,47.9-13.6c7.1,0.9,13.3,5.3,16.5,11.8C304.7,511.4,306.6,516.5,307.9,521.3z
				 M239.1,520C239.1,520,239.1,520,239.1,520c6,21.3,15,35,26.1,39.6c7.9,3.3,17.1,2,27.3-3.7c18.7-10.5,10.7-34.1,4.2-47.2
				c-2.3-4.7-6.8-7.9-11.9-8.6c-21.3-2.6-36.4,6.6-43.4,12.3l0,0C239.2,514.3,238.3,517.3,239.1,520z"/>
		</g>
		<g>
			<g>
				<g>
					<path class="st2" d="M760.1,642.5H652.5l1.2-287.4c37.5-15.4,72.4-11.7,106.6,0.6L760.1,642.5z"/>
					<path class="st5" d="M760.1,645H652.5c-0.7,0-1.3-0.3-1.7-0.7c-0.5-0.5-0.7-1.1-0.7-1.8l1.2-287.4c0-1,0.6-1.9,1.5-2.3
						c34.1-14,68.5-13.8,108.4,0.5c1,0.4,1.6,1.3,1.6,2.3l-0.2,286.8C762.6,643.9,761.5,645,760.1,645z M655,640h102.7l0.2-282.6
						c-37.3-13.1-69.7-13.3-101.7-0.6L655,640z"/>
				</g>
				<g>
					<polygon class="st7" points="712.2,424.2 727.2,512.5 678.5,512.5 693.8,422.6 					"/>
					<path class="st8" d="M728.7,513.7H677l0.2-1.5l15.4-91.1l20.6,1.8l0.2,1L728.7,513.7z M680,511.2h45.8l-14.6-85.8l-16.4-1.5
						L680,511.2z"/>
				</g>
				<g>
					<polygon class="st7" points="725,403.5 703,439.2 683.2,403.5 703,391.1 					"/>
					<path class="st8" d="M702.9,441.7l-21.4-38.6l21.5-13.4l23.8,13.4L702.9,441.7z M684.8,403.9l18.2,32.8l20.2-32.8L703,392.6
						L684.8,403.9z"/>
				</g>
				<g>
					<path class="st0" d="M628.5,466.2v194.1l34.9-1.4l0-3l87.6-3.6v7l26.2,0.6v31.2H824c0,0,0-240.1-0.1-240.1l0-13.3
						c0-12.6-0.7-26-5.6-37.7c-11.6-28.2-46.5-51.8-76.6-51.9c-0.6,0-1.2,0-1.6,0.4c-0.3,0.3-0.4,0.8-0.5,1.3
						c-7,41.5-19.9,82.5-30.3,123.4c-1.7,6.6-3.4,13.3-5.1,19.9c-2-7.6-4-15.2-6.1-22.8c-5.9-22.1-11.8-44.3-17.7-66.4
						c-0.9-3.5-13.1-56.2-14.2-56.2c-25.2-0.3-61.3,26.6-68.1,51.6c0,0.1-35.9,133.3-123.7,184.4v45.6
						C474.3,629.2,572.3,599.6,628.5,466.2z"/>
				</g>
				<g>
					<polygon class="st0" points="708.4,638.2 706.7,638.2 635,638.2 635,977.4 699.1,977.4 699.1,710.6 716,710.6 716,977.4 
						780.2,977.4 780.2,638.2 					"/>
				</g>
				<g>
					<path class="st9" d="M693.7,1007.3H572c-1.9,0-3.5-1.6-3.5-3.5v-1.1c0-14.9,12.1-27,27-27h98.2c1.9,0,3.5,1.6,3.5,3.5v24.6
						C697.2,1005.7,695.6,1007.3,693.7,1007.3z"/>
					<path class="st5" d="M693.7,1009.6H572c-3.2,0-5.8-2.6-5.8-5.8v-1.1c0-16.2,13.1-29.3,29.3-29.3h98.2c3.2,0,5.8,2.6,5.8,5.8
						v24.6C699.5,1007,696.9,1009.6,693.7,1009.6z M595.5,977.9c-13.6,0-24.7,11.1-24.7,24.7v1.1c0,0.7,0.6,1.2,1.2,1.2h121.7
						c0.7,0,1.2-0.6,1.2-1.2v-24.6c0-0.7-0.6-1.2-1.2-1.2H595.5z"/>
				</g>
				<g>
					<path class="st9" d="M714.9,1007.3h126.3c2,0,3.6-1.6,3.6-3.6v-0.6c0-15.2-12.3-27.5-27.5-27.5H714.9c-2,0-3.6,1.6-3.6,3.6
						v24.5C711.3,1005.7,712.9,1007.3,714.9,1007.3z"/>
					<path class="st5" d="M841.2,1009.6H714.9c-3.2,0-5.9-2.6-5.9-5.9v-24.5c0-3.2,2.6-5.9,5.9-5.9h102.4
						c16.4,0,29.8,13.4,29.8,29.8v0.6C847.1,1006.9,844.5,1009.6,841.2,1009.6z M714.9,977.9c-0.7,0-1.3,0.6-1.3,1.3v24.5
						c0,0.7,0.6,1.3,1.3,1.3h126.3c0.7,0,1.3-0.6,1.3-1.3v-0.6c0-13.9-11.3-25.2-25.2-25.2H714.9z"/>
				</g>
				<g>
					<g>
						<path class="st10" d="M704.6,390.6h-5.2c-16.9,0-30.7-13.7-30.7-30.7v-29.7c0-16.9,13.7-30.7,30.7-30.7h5.2
							c16.9,0,30.7,13.7,30.7,30.7v29.7C735.2,376.9,721.5,390.6,704.6,390.6z"/>
						<path class="st5" d="M704.6,393.5h-5.2c-18.5,0-33.6-15.1-33.6-33.6v-29.7c0-18.5,15.1-33.6,33.6-33.6h5.2
							c18.5,0,33.6,15.1,33.6,33.6v29.7C738.2,378.4,723.1,393.5,704.6,393.5z M699.3,302.5c-15.3,0-27.8,12.5-27.8,27.8v29.7
							c0,15.3,12.5,27.8,27.8,27.8h5.2c15.3,0,27.8-12.5,27.8-27.8v-29.7c0-15.3-12.5-27.8-27.8-27.8H699.3z"/>
					</g>
				</g>
				<g>
					<polygon class="st2" points="739.8,352.7 703.5,391.1 736.8,409.7 					"/>
					<path class="st5" d="M736.8,412.2c-0.4,0-0.8-0.1-1.2-0.3l-33.3-18.6c-0.7-0.4-1.1-1-1.2-1.8c-0.1-0.8,0.1-1.5,0.6-2.1L738,351
						c0.7-0.8,1.8-1,2.8-0.6c1,0.4,1.5,1.4,1.5,2.4l-3,57.1c0,0.9-0.5,1.6-1.3,2C737.6,412.1,737.2,412.2,736.8,412.2z M707.5,390.5
						l27.1,15.1l2.5-46.4L707.5,390.5z"/>
				</g>
				<g>
					<polygon class="st2" points="666.7,352.7 703,391.1 669.7,409.7 					"/>
					<path class="st5" d="M669.7,412.2c-0.4,0-0.8-0.1-1.2-0.3c-0.7-0.4-1.2-1.2-1.3-2l-3-57.1c-0.1-1,0.5-2,1.5-2.4
						c1-0.4,2.1-0.2,2.8,0.6l36.3,38.5c0.5,0.6,0.8,1.3,0.6,2.1c-0.1,0.8-0.6,1.4-1.2,1.8l-33.3,18.6
						C670.5,412.1,670.1,412.2,669.7,412.2z M669.5,359.2l2.5,46.4l27.1-15.1L669.5,359.2z"/>
				</g>
				<g>
					<g>
						<g>
							<g>
								<path class="st10" d="M624.9,286.1c0.9,27.1,34,48,73.6,47.3l1.4,0c39.4-0.7,66-22.6,66.9-49.4l9.6-104.3
									c1.1-30.4-33-55.5-76.3-55.4l-1.5,0c-43.6,0.1-78.4,25.7-77.3,56.4L624.9,286.1z"/>
							</g>
							<g>
								<path class="st11" d="M684.2,125.2l0.6,207.5c-33.2-3.6-59.1-22.7-59.9-46.7l-3.6-105.5
									C620.4,153.4,647.5,130.2,684.2,125.2z"/>
							</g>
							<g>
								<path class="st5" d="M623.5,286.1l-3.7-105.5c-0.5-15.2,7.4-29.6,22.3-40.6c15-11,35.1-17.1,56.5-17.2l1.5,0
									c0.1,0,0.2,0,0.3,0c44,0,78.6,25.8,77.5,56.7l-9.7,104.3c-0.5,13.4-8.6,26-22.7,35.5c-13.9,9.4-26.3,14.7-45.6,15.1l-1.4,0
									c-0.1,0-0.2,0-0.2,0C658.1,335.2,624.5,313.8,623.5,286.1z M700.1,125.6l-1.5,0c-20.7,0.1-40.1,6-54.6,16.6
									c-14.2,10.5-21.7,24.2-21.3,38.5l3.5,105.5l-1.4,0l1.4,0c0.9,26.4,33.2,46.8,71.9,46.2c0.1,0,0.2,0,0.2,0l1.4,0
									c18.8-0.3,30.5-5.5,44-14.6c13.4-9.1,21.1-21,21.6-33.7l9.6-104.4c1-29.5-32.3-54-74.6-54
									C700.3,125.6,700.2,125.6,700.1,125.6z"/>
								<path class="st5" d="M696.5,336c-40.3,0-73.5-22.1-74.4-49.8l-3.7-105.5c-0.5-15.7,7.6-30.6,22.9-41.8
									c15.2-11.2,35.6-17.4,57.3-17.5l1.8,0c25.9,0,50.2,9.1,64.9,24.3c9.6,10,14.5,21.7,14,33.9L769.6,284
									c-0.5,13.8-8.8,26.8-23.3,36.6c-13.6,9.2-26.1,14.9-46.4,15.3l-1.6,0C697.7,336,697.1,336,696.5,336z M698.4,333.7l0.1,0.8
									l0-0.8L698.4,333.7z M698.2,330.8l0.3,1.5l0-1.5l1.4,0c18.8-0.3,30.5-5.7,43.2-14.3c13.1-8.8,20.5-20.4,20.9-32.6l9.6-104.4
									c0.4-10.7-4-21.1-12.5-29.9c-13.6-14.1-36.3-22.5-60.6-22.5h0l-1.8,0c-20.4,0.1-39.5,5.8-53.7,16.3
									c-13.8,10.1-21.1,23.4-20.7,37.3l3.5,105.5C628.6,311.3,660.2,331.4,698.2,330.8z M626.6,159.2c-3.7,6.7-5.6,14-5.3,21.4
									l0.5,15.3l-0.5-15.2C621.1,173.2,622.9,165.9,626.6,159.2z"/>
							</g>
						</g>
					</g>
				</g>
				<g>
					<g>
						<path class="st4" d="M647.8,245.3c7.5,0,13.6,5.2,13.6,11.7c0,6.5-6.1,11.7-13.6,11.7c-7.5,0-13.6-5.2-13.6-11.7
							C634.2,250.5,640.3,245.3,647.8,245.3z"/>
					</g>
					<g>
						<ellipse class="st4" cx="723.4" cy="256.9" rx="13.6" ry="11.7"/>
					</g>
				</g>
				<g>
					<g>
						<path class="st5" d="M682.9,261.1c1.9,0,3.8-0.6,5.2-1.8c0.6-0.5,0.7-1.4,0.2-2c-0.5-0.6-1.4-0.7-2-0.2
							c-1.6,1.3-4.3,1.5-6.2,0.4c-1.9-1-3-3.1-2.7-5.2c0.2-2,1.6-4,3.7-5.2c0.9-0.5,1.9-0.9,3-1.1l1.2-0.2l0-10.4
							c0-0.8-0.6-1.4-1.4-1.4h0c-0.8,0-1.4,0.6-1.4,1.4l0,8.1c-1,0.3-1.9,0.7-2.7,1.2c-2.9,1.7-4.8,4.4-5.1,7.4
							c-0.3,3.2,1.3,6.4,4.2,8C679.9,260.7,681.4,261.1,682.9,261.1z"/>
					</g>
				</g>
				<g>
					<path class="st5" d="M647.2,231.3L647.2,231.3c-2.7,0-5-2.2-5-5v-4.5c0-2.7,2.2-5,5-5l0,0c2.7,0,5,2.2,5,5v4.5
						C652.2,229.1,650,231.3,647.2,231.3z"/>
				</g>
				<g>
					<path class="st5" d="M713.2,231.3L713.2,231.3c-2.7,0-5-2.2-5-5v-4.5c0-2.7,2.2-5,5-5l0,0c2.7,0,5,2.2,5,5v4.5
						C718.2,229.1,715.9,231.3,713.2,231.3z"/>
				</g>
				<g>
					<g>
						<g>
							<g>
								<g>
									<path class="st5" d="M767.7,221.5c2.2,0.4,5.4,1.3,7.7,3.6c2.2,2.2,3.3,5.3,3.3,9.2c0,5.9-3.5,12.1-9.5,13.4
										c-0.9,0.2-1.9,0.3-2.9,0.4c-1.2,0.1-2.1,0.7-2.5,1.9c-0.2,0.8-0.2,1.7-0.2,2.5c0,0.3,0,0.6,0.2,0.8c0.7,1.1,4.1-0.2,5-0.4
										c1.5-0.3,2.9-0.8,4.3-1.4c3.1-1.4,5.9-3.7,7.8-6.7c2-3.1,2.8-6.9,2.7-10.6c0-5.4-1.7-9.7-4.9-12.9
										c-5.2-5.2-12.8-5.3-13.7-5.3c0,0-0.1,0-0.1,0c-1.4,0-2.6-0.8-2.6,0.6l0.1,2c0,1.4,1.1,2.5,2.5,2.6
										C766.4,221.4,767.7,221.5,767.7,221.5z"/>
									<path class="st5" d="M765.1,255.3c-1,0-1.9-0.3-2.4-1.1c-0.4-0.6-0.4-1.2-0.4-1.6c0-0.9,0-1.9,0.3-3c0.5-1.8,1.9-2.8,3.8-3
										c1.1-0.1,1.9-0.2,2.7-0.4c5.5-1.2,8.4-7.1,8.3-12c0-3.5-1-6.3-2.9-8.2c-2.1-2-4.9-2.9-6.9-3.2c-0.4,0-1.3,0-2.6-0.1
										c-2.1-0.1-3.8-1.9-3.9-4l-0.1-2c0-0.8,0.2-1.4,0.7-1.8c0.8-0.7,1.7-0.5,2.4-0.4c0.3,0,0.6,0.1,0.9,0.1
										c1.1,0,9.2,0.1,14.9,5.7c3.5,3.5,5.3,8.1,5.3,13.9c0,4.3-1,8.3-3,11.4c-1.9,3.1-4.9,5.6-8.5,7.3c-1.5,0.7-3,1.2-4.6,1.5
										c-0.1,0-0.3,0.1-0.6,0.2C767.5,254.9,766.2,255.3,765.1,255.3z M766.3,219.8l1.7,0.3c2.4,0.4,5.9,1.4,8.5,4
										c2.5,2.5,3.7,5.9,3.8,10.2c0,6.2-3.6,13.3-10.6,14.8c-0.9,0.2-1.9,0.3-3.1,0.4c-0.7,0-1,0.3-1.2,0.9
										c-0.2,0.5-0.2,1.2-0.2,1.9c0.5,0,1.4-0.2,2.6-0.6c0.3-0.1,0.6-0.2,0.8-0.2c1.4-0.3,2.8-0.8,4-1.3c3.1-1.4,5.6-3.5,7.2-6.1
										c1.7-2.7,2.5-6.1,2.5-9.8c0-5-1.5-9-4.5-11.9c-4.8-4.8-11.9-4.9-12.7-4.8c-0.5,0-0.9,0-1.2-0.1l0,1.2
										c0,0.6,0.5,1.2,1.1,1.2c0.4,0,0.8,0,1.1,0.1V219.8z"/>
								</g>
								<g>
									<path class="st10" d="M761.2,250.7c0,0,19.3-0.1,19.3-16.1c0-16-19.2-16.1-19.2-16.1L761.2,250.7z"/>
								</g>
							</g>
						</g>
					</g>
					<g>
						<g>
							<g>
								<path class="st12" d="M766.2,244.2c0,0,9.1-0.2,9.1-9.7c0-9.4-9-9.3-9-9.3L766.2,244.2z"/>
							</g>
						</g>
					</g>
				</g>
				<g>
					<g>
						<path class="st13" d="M642.8,163.2c0.2-0.6,0.3-1.1,0.4-1.7c26.2,12.5,56.3,13.5,85.2,10.7c8.1-0.8,17.7-3.1,20.3-10.7
							c3.7,18.2,11,35.6,21.5,50.8c1.5,2.1,8.6,11.8,11.6,10.5c2.4-1,1.5-11.2,1.6-13.4c0.8-19.6,6.1-42-4.9-59.9
							c-6.1-9.8-16.3-16.3-26.8-20.6c-10.9-4.4-23.8-4.4-34.1-9.8c-10.8-5.6-17.5-14.1-30.9-12.4c-4.7,0.6-9.1,5.4-13.6,3.3
							c-8.3-3.7-16-7.7-24.7-10.3c-15.2-4.4-33.1-2-41.7,12.8c-3.8,6.5-4.9,14.5-3.2,21.9c0.8,3.5,2.1,6.9,4.2,9.7
							c2.3,3.1,5.1,5.4,6.1,9.3c0.5,2.1,0.5,4.3,0.5,6.4c0,11.5,0.7,23.1,1.9,34.6c0.6,5.6,1.4,11.2,2.3,16.7
							c0.5,3.4,0.4,10.7,3.5,12.9c1.3-6.4,0.7-13.5,2.1-20.2c1.4-6.7,3.7-13.2,7.1-19.2C635.1,177.6,640.7,171.1,642.8,163.2z"/>
					</g>
					<g>
						<path class="st5" d="M621.8,227c-0.6,0-1.2-0.2-1.7-0.5c-3.5-2.4-4-7.9-4.4-12.2c-0.1-1-0.2-1.8-0.3-2.6
							c-0.9-5.5-1.7-11.2-2.3-16.9c-1.3-11.5-1.9-23.3-1.9-34.9c0-2.2,0-4-0.4-5.7c-0.6-2.2-2-3.9-3.6-5.8c-0.7-0.8-1.4-1.6-2-2.5
							c-2.1-2.9-3.7-6.5-4.7-10.8c-1.8-8.2-0.5-17,3.6-24c10-17.2,30.5-18.4,45-14.2c6.9,2,13.2,4.9,19.3,7.7
							c1.9,0.9,3.8,1.8,5.8,2.6c1.5,0.7,3.2-0.1,5.8-1.4c1.9-0.9,4-1.9,6.3-2.2c10.8-1.3,17.9,3.4,24.7,7.9c2.5,1.7,5.1,3.4,7.9,4.8
							c5.3,2.8,11.4,4.1,17.9,5.4c5.3,1.1,10.8,2.2,15.9,4.3c13,5.3,22.5,12.6,28.2,21.7c9.2,14.9,7.7,32.3,6.3,49
							c-0.4,4.4-0.7,8.5-0.9,12.5c0,0.4,0,1.1,0,1.9c0.2,7.1,0.1,12.6-3.4,14.1c-4.6,2-10.8-5.2-15.1-11.5
							c-9.4-13.7-16.4-29.2-20.5-45.3c-3.9,3.5-10.1,5.6-18.7,6.5c-33.9,3.3-61.3,0.2-83.5-9.6c-1.7,5.1-4.7,9.7-7.6,14.1
							c-1.4,2.1-2.8,4.3-4,6.5c-3.1,5.4-5.3,11.6-6.8,18.4c-0.7,3.2-0.8,6.4-1,9.9c-0.2,3.4-0.4,6.9-1.1,10.3
							c-0.2,1-0.9,1.8-1.8,2.1C622.6,227,622.2,227,621.8,227z M748.7,158.6c0.1,0,0.1,0,0.2,0c1.3,0.1,2.4,1,2.7,2.3
							c3.6,17.7,10.9,34.9,21.1,49.8c2.6,3.8,5.9,7.4,7.7,8.8c0.4-2.2,0.2-6.3,0.2-7.9c0-1-0.1-1.8,0-2.3c0.2-4.2,0.6-8.6,0.9-12.8
							c1.4-15.8,2.8-32.2-5.4-45.5c-5-8.1-13.5-14.6-25.4-19.4c-4.6-1.9-9.6-2.9-14.9-4c-6.6-1.4-13.4-2.8-19.4-5.9
							c-3.1-1.6-5.8-3.4-8.4-5.1c-6.5-4.3-12.1-8-20.8-7c-1.4,0.2-2.9,0.9-4.4,1.7c-3,1.4-6.7,3.2-10.7,1.4c-2-0.9-3.9-1.8-5.9-2.7
							c-6.2-2.9-12-5.6-18.5-7.4c-12.5-3.6-30-2.8-38.4,11.5c-3.4,5.8-4.4,13-2.9,19.8c0.8,3.5,2,6.4,3.7,8.6
							c0.6,0.8,1.2,1.5,1.8,2.2c1.9,2.2,3.8,4.6,4.7,8.1c0.6,2.4,0.6,4.7,0.6,7c0,11.6,0.7,23.1,1.9,34.5c0.4,4.1,1,8.1,1.6,12.2
							c0.1-1,0.3-2,0.5-3.1c1.6-7.4,4-14.1,7.4-20c1.3-2.3,2.8-4.6,4.2-6.8c3.1-4.7,6-9.1,7.3-14.1v0c0.1-0.5,0.3-1,0.4-1.5
							c0.2-0.9,0.8-1.6,1.6-2c0.8-0.4,1.7-0.4,2.5,0c21.8,10.4,49.2,13.8,83.6,10.5c10.3-1,16.2-3.9,17.8-8.8
							C746.4,159.4,747.5,158.6,748.7,158.6z"/>
					</g>
				</g>
				<g>
					<path class="st5" d="M729.1,207.1c-0.2,0-0.4-0.1-0.5-0.2c-3.2-3.3-6.7-4.8-10.2-4.8c-5.7,0.1-9.9,4.7-9.9,4.8
						c-0.3,0.3-0.7,0.3-1,0.1c-0.3-0.3-0.3-0.7-0.1-1c0.2-0.2,4.6-5.1,11-5.3c3.9-0.1,7.7,1.7,11.3,5.2c0.3,0.3,0.3,0.7,0,1
						C729.5,207,729.3,207.1,729.1,207.1z"/>
				</g>
				<g>
					<path class="st5" d="M640.7,207.1c-0.2,0-0.3-0.1-0.5-0.2c-0.3-0.3-0.3-0.7-0.1-1c0.2-0.2,4.6-5.1,11-5.3
						c3.9-0.1,7.7,1.7,11.3,5.2c0.3,0.3,0.3,0.7,0,1c-0.3,0.3-0.7,0.3-1,0c-3.2-3.3-6.6-4.9-10.2-4.8c-5.7,0.1-9.9,4.7-9.9,4.8
						C641.1,207,640.9,207.1,640.7,207.1z"/>
				</g>
				<g>
					<g>
						<ellipse class="st10" cx="471.1" cy="607.6" rx="31.6" ry="30.4"/>
					</g>
					<g>
						<path class="st14" d="M462.4,629.6c17.6,0,31.9-14.3,31.9-31.9c0-6.6-2-12.7-5.4-17.8c7.9,5.8,13.1,15.1,13.1,25.7
							c0,17.6-14.3,31.9-31.9,31.9c-11,0-20.7-5.6-26.5-14.1C448.9,627.3,455.4,629.6,462.4,629.6z"/>
					</g>
					<g>
						<path class="st5" d="M437,607.6c0-18.2,15.3-33,34.1-33c18.8,0,34.1,14.8,34.1,33c0,18.2-15.3,33-34.1,33
							C452.3,640.5,437,625.7,437,607.6z M442.1,607.6c0,15.4,13,27.9,29,27.9c16,0,29-12.5,29-27.9c0-15.4-13-27.9-29-27.9
							C455.1,579.6,442.1,592.2,442.1,607.6z"/>
					</g>
				</g>
				<g>
					<path class="st5" d="M686.1,301.4c-12.5,0-20.1-9-20.3-9.1c-0.8-1-0.7-2.5,0.3-3.3c1-0.8,2.5-0.7,3.3,0.3
						c0.6,0.7,14.3,16.5,35.5-0.3c1-0.8,2.5-0.6,3.3,0.4c0.8,1,0.6,2.5-0.4,3.3C699.7,299.2,692.3,301.4,686.1,301.4z"/>
				</g>
			</g>
			<g>
				<path class="st8" d="M837.7,715.3c-2,0-3.6-1.6-3.6-3.6v-34.5h-75.1v34.5c0,2-1.6,3.6-3.6,3.6c-2,0-3.6-1.6-3.6-3.6v-38.1
					c0-2,1.6-3.6,3.6-3.6h82.4c2,0,3.6,1.6,3.6,3.6v38.1C841.3,713.7,839.7,715.3,837.7,715.3z"/>
			</g>
			<g>
				<path class="st15" d="M883.7,853H709.2c-5.9,0-10.6-4.7-10.6-10.6V722.3c0-5.9,4.7-10.6,10.6-10.6h174.6
					c5.9,0,10.6,4.7,10.6,10.6v120.2C894.3,848.3,889.6,853,883.7,853z"/>
				<path class="st8" d="M883.7,856H709.2c-7.5,0-13.5-6.1-13.5-13.5V722.3c0-7.5,6.1-13.5,13.5-13.5h174.6
					c7.5,0,13.5,6.1,13.5,13.5v120.2C897.3,849.9,891.2,856,883.7,856z M709.2,714.6c-4.2,0-7.7,3.5-7.7,7.7v120.2
					c0,4.2,3.5,7.7,7.7,7.7h174.6c4.2,0,7.7-3.5,7.7-7.7V722.3c0-4.2-3.5-7.7-7.7-7.7H709.2z"/>
			</g>
			<g>
				<g>
					<ellipse class="st10" cx="794.7" cy="670.5" rx="34.1" ry="30.4"/>
				</g>
				<g>
					<path class="st14" d="M785.2,692.6c19,0,34.4-14.3,34.4-31.9c0-6.6-2.2-12.7-5.8-17.8c8.6,5.8,14.2,15.1,14.2,25.7
						c0,17.6-15.4,31.9-34.4,31.9c-11.9,0-22.4-5.6-28.6-14.1C770.6,690.3,777.6,692.6,785.2,692.6z"/>
				</g>
				<g>
					<path class="st5" d="M757.8,670.5c0-18.2,16.5-33,36.9-33c20.3,0,36.9,14.8,36.9,33c0,18.2-16.5,33-36.9,33
						C774.3,703.5,757.8,688.7,757.8,670.5z M763.3,670.5c0,15.4,14.1,27.9,31.4,27.9c17.3,0,31.4-12.5,31.4-27.9
						c0-15.4-14.1-27.9-31.4-27.9C777.4,642.6,763.3,655.2,763.3,670.5z"/>
				</g>
			</g>
		</g>
		<g>
			<g>
				<path class="st2" d="M388.8,574.8c-43.6,0.6-74.2,16.4-74,35.3c0.2,19,31.2,33.9,74.9,33.4c17.7-0.2,33.9-3,47.1-7.4L436,581
					C422.8,576.9,406.4,574.6,388.8,574.8z"/>
				<path class="st1" d="M438.8,636.9c-0.2,0.7-0.7,1.2-1.4,1.4c-13.9,4.7-30.4,7.3-47.7,7.5c-21.1,0.3-40.5-3.1-54.6-9.6
					c-14.4-6.6-22.4-15.8-22.5-26.1c-0.3-20.9,32.5-37.1,76.2-37.7l0,0c17.4-0.2,33.9,1.9,47.9,6.3c1,0.3,1.6,1.2,1.6,2.2L439,636
					C439,636.3,438.9,636.6,438.8,636.9z M318,604.7c-0.6,1.8-0.9,3.6-0.9,5.4c0.1,8.3,7.1,16.1,19.8,21.9
					c13.5,6.2,32.3,9.4,52.7,9.2c16.2-0.2,31.7-2.6,44.8-6.8l-0.6-51.6c-13.2-3.9-28.7-5.8-44.9-5.6l0,0
					C352.5,577.6,323.4,589.3,318,604.7z"/>
			</g>
			<g>
				<path class="st0" d="M436.7,636.1c19.2-6.5,31.6-16.7,31.5-28C468,596.8,455.4,587,436,581L436.7,636.1z"/>
				<path class="st1" d="M469.4,614.4c-3.4,9.5-14.6,18-32,23.9c-0.7,0.2-1.4,0.1-2-0.3c-0.6-0.4-0.9-1.1-1-1.9l-0.7-55.1
					c0-0.7,0.3-1.4,0.9-1.9c0.6-0.4,1.3-0.6,2-0.4c21.3,6.6,33.7,17.3,33.8,29.3C470.5,610.2,470.1,612.3,469.4,614.4z M438.9,632.8
					c17.1-6.4,27.1-15.5,27-24.7c-0.1-9.2-10.4-18-27.6-24L438.9,632.8z"/>
			</g>
			<g>
				
					<ellipse transform="matrix(0.9999 -1.565889e-02 1.565889e-02 0.9999 -9.4993 5.7587)" class="st3" cx="363" cy="609.5" rx="23.1" ry="20.2"/>
				<path class="st1" d="M387.2,616.2c-3.2,9.1-12.7,15.7-23.9,15.9c-14,0.2-25.5-9.8-25.7-22.2c-0.1-6.1,2.5-11.8,7.4-16.2
					c4.7-4.2,11-6.6,17.7-6.7l0,0c6.7-0.1,13.1,2.1,17.9,6.2c4.9,4.2,7.7,9.9,7.8,16C388.4,611.6,388,613.9,387.2,616.2z M343,604.4
					c-0.6,1.7-0.9,3.5-0.9,5.4c0.1,9.9,9.6,17.7,21.1,17.6c11.5-0.1,20.7-8.3,20.6-18.1c-0.1-4.7-2.2-9.1-6.1-12.4
					c-4-3.4-9.3-5.2-14.9-5.2l0,0c-5.6,0.1-10.9,2-14.8,5.6C345.7,599.2,344,601.7,343,604.4z"/>
			</g>
		</g>
	</g>
	<g>
		<g id="XMLID_2594_" class="st16">
			<g id="XMLID_2595_">
				<g id="XMLID_2596_">
					<g>
						<g>
							<g>
								<g>
									<g>
										<g>
											<g>
												<g>
													<g>
														<g>
															<g>
																<path class="st17" d="M720.1,1052.3H495c-2.1,0-3.8-2.5-3.8-5.5l0,0c0-3,1.7-5.5,3.8-5.5h225.1
																	c2.1,0,3.8,2.5,3.8,5.5l0,0C723.9,1049.8,722.2,1052.3,720.1,1052.3z"/>
															</g>
														</g>
													</g>
												</g>
											</g>
										</g>
									</g>
								</g>
							</g>
						</g>
					</g>
				</g>
			</g>
		</g>
		<g id="XMLID_2591_" class="st16">
			<g id="XMLID_2592_">
				<g id="XMLID_2593_">
					<g>
						<g>
							<g>
								<g>
									<g>
										<g>
											<g>
												<g>
													<g>
														<g>
															<g>
																<path class="st17" d="M741.4,1052.3h-5.6c-2.1,0-3.8-2.5-3.8-5.5l0,0c0-3,1.7-5.5,3.8-5.5h5.6
																	c2.1,0,3.8,2.5,3.8,5.5l0,0C745.2,1049.8,743.5,1052.3,741.4,1052.3z"/>
															</g>
														</g>
													</g>
												</g>
											</g>
										</g>
									</g>
								</g>
							</g>
						</g>
					</g>
				</g>
			</g>
		</g>
		<g id="XMLID_2588_" class="st16">
			<g id="XMLID_2589_">
				<g id="XMLID_2590_">
					<g>
						<g>
							<g>
								<g>
									<g>
										<g>
											<g>
												<g>
													<g>
														<g>
															<g>
																<path class="st17" d="M869.9,1086.3h-219c-2.2,0-4-2.6-4-5.9l0,0c0-3.2,1.8-5.9,4-5.9h219c2.2,0,4,2.6,4,5.9l0,0
																	C873.9,1083.6,872.1,1086.3,869.9,1086.3z"/>
															</g>
														</g>
													</g>
												</g>
											</g>
										</g>
									</g>
								</g>
							</g>
						</g>
					</g>
				</g>
			</g>
		</g>
		<g id="XMLID_2585_" class="st16">
			<g id="XMLID_2586_">
				<g id="XMLID_2587_">
					<g>
						<g>
							<g>
								<g>
									<g>
										<g>
											<g>
												<g>
													<g>
														<g>
															<g>
																<path class="st17" d="M877.9,1069.8h-10.1c-2.2,0-4-2.6-4-5.9l0,0c0-3.2,1.8-5.9,4-5.9h10.1c2.2,0,4,2.6,4,5.9l0,0
																	C881.9,1067.2,880.1,1069.8,877.9,1069.8z"/>
															</g>
														</g>
													</g>
												</g>
											</g>
										</g>
									</g>
								</g>
							</g>
						</g>
					</g>
				</g>
			</g>
		</g>
	</g>
	<ellipse class="st18" cx="330.1" cy="1058.1" rx="82.9" ry="12.8"/>
</g>
</svg>
