<?xml version="1.0" encoding="utf-8"?>
<!-- Generator: Adobe Illustrator 23.1.0, SVG Export Plug-In . SVG Version: 6.00 Build 0)  -->
<svg version="1.1" xmlns="http://www.w3.org/2000/svg" xmlns:xlink="http://www.w3.org/1999/xlink" x="0px" y="0px"
	 viewBox="0 0 500 500" style="enable-background:new 0 0 500 500;" xml:space="preserve">
<style type="text/css">
	.st0{fill:#DBBCA5;}
	.st1{fill:#E3CDBB;}
	.st2{fill:#D3522F;}
	.st3{fill:#AF4700;}
	.st4{fill:#8E3900;}
	.st5{fill:#A83314;}
	.st6{fill:#F09716;}
	.st7{fill:#FAB725;}
	.st8{fill:#CC6017;}
	.st9{font-family:'LibreBaskerville-Bold';}
	.st10{font-size:27.406px;}
	.st11{fill:#FFFFFF;}
	.st12{fill:#2983BB;}
	.st13{fill:#1C69A3;}
	.st14{fill:none;stroke:#C9CFD1;stroke-width:0.75;stroke-linecap:round;stroke-linejoin:round;stroke-miterlimit:10;}
	.st15{fill:#ED4F4F;}
	.st16{fill:#D63434;}
	.st17{fill:#868127;}
	.st18{fill:#A09945;}
	.st19{fill:#EA9B1C;}
	.st20{fill:#3374A0;}
	.st21{fill:#58A2CC;}
	.st22{fill:#215681;}
	.st23{fill:none;stroke:#5F6666;stroke-linecap:round;stroke-linejoin:round;stroke-miterlimit:10;}
	.st24{fill:none;stroke:#BDBE56;stroke-miterlimit:10;}
	.st25{fill:#9A9833;}
	.st26{fill:#2D759C;}
	.st27{fill:#ABDAEF;}
	.st28{opacity:0.22;fill:#3C4042;}
	.st29{fill:#3F95BA;}
	.st30{fill:#D9E0D7;}
	.st31{fill:#EFF5EE;}
	.st32{fill:#4A1913;}
	.st33{fill:#F8EFE2;}
	.st34{fill:#192D35;}
	.st35{opacity:0.33;fill:#192D35;}
	.st36{fill:#FCA388;}
	.st37{fill:#0F3E54;}
	.st38{opacity:0.25;fill:#0F3E54;}
	.st39{fill:#184E63;}
	.st40{fill:#EFE1CE;}
	.st41{fill:#D34439;}
	.st42{fill:#C1332D;}
	.st43{fill:#092B3D;}
	.st44{opacity:0.33;fill:#092B3D;}
	.st45{fill:#06202B;}
	.st46{fill:none;stroke:#EF6159;stroke-width:1.2;stroke-linecap:round;stroke-linejoin:round;stroke-miterlimit:10;}
	.st47{fill:#EF6159;}
	.st48{fill:#F97F75;}
	.st49{fill:none;stroke:#EF6159;stroke-linecap:round;stroke-linejoin:round;stroke-miterlimit:10;}
	.st50{fill:none;stroke:#EF6159;stroke-width:0.75;stroke-linecap:round;stroke-linejoin:round;stroke-miterlimit:10;}
	.st51{opacity:0.77;fill:#EF6159;}
	.st52{fill:none;stroke:#06222D;stroke-linecap:round;stroke-linejoin:round;stroke-miterlimit:10;}
	.st53{fill:#FFC741;}
	.st54{fill:none;stroke:#B4BAB3;stroke-linecap:round;stroke-linejoin:round;stroke-miterlimit:10;}
	.st55{fill:#47210C;}
	.st56{fill:#2D1308;}
	.st57{fill:#682E14;}
	.st58{fill:#883F23;}
	.st59{fill:#260F07;}
	.st60{fill:#EFAC18;}
	.st61{fill:#D6800D;}
	.st62{fill:#C96B0E;}
	.st63{fill:#B55E10;}
</style>
<g id="BACKGROUND">
</g>
<g id="OBJECTS">
	<g>
		<path class="st0" d="M437.1,451H50.5c-5.3,0-9.7-4.3-9.7-9.7v0c0-5.3,4.3-9.7,9.7-9.7h386.6c5.3,0,9.7,4.3,9.7,9.7v0
			C446.7,446.7,442.4,451,437.1,451z"/>
		<path class="st1" d="M91.4,409.5c0,0-19.4-8.3-27.5-26.8c-8.1-18.5-0.1-36.7,3.2-44.9c3.2-8.2,8.8-22.1,8.2-32.6
			c-0.6-10.6-8.5-26.7-16-41.1c-7.6-14.4-15.9-35.4-14.7-61.7s14-52.9,29-72.4S125.6,77,173.8,62.6S280,49.9,306.3,54.3
			c29.1,4.9,71.6,22,95.8,53.1c24.1,31.1,36.5,70.5,32.7,98.3s-18.4,54.1-24.9,66.7c-6.5,12.6-8.6,21.9-7.2,29.9
			c1.4,8,5.8,13.5,10.6,19.6c4.8,6.1,12,19.4,11.2,29.8c-0.8,10.3-3.2,21.7-19.4,34.7c-16.2,13-42.5,46.6-41.8,56.6L91.4,409.5z"/>
		<g>
			<rect x="83.1" y="249" class="st2" width="305.7" height="7.7"/>
			<rect x="87.8" y="256.6" class="st3" width="296.6" height="186.5"/>
			<path class="st4" d="M128.4,256.6H109v167.8h275.4v-18.1h-202c-29.8,0-54-24.2-54-54V256.6z"/>
			<g>
				<rect x="363.2" y="256.6" class="st5" width="21.2" height="186.5"/>
				<rect x="87.8" y="256.6" class="st4" width="21.2" height="186.5"/>
				<rect x="87.8" y="425.8" class="st2" width="296.6" height="17.3"/>
			</g>
			<g>
				<path class="st6" d="M324.2,312.3H156.9c-2.3,0-4.2-1.9-4.2-4.2v-33.7c0-2.3,1.9-4.2,4.2-4.2h167.2c2.3,0,4.2,1.9,4.2,4.2v33.7
					C328.3,310.4,326.5,312.3,324.2,312.3z"/>
				<path class="st7" d="M322.2,310H158.9c-2.1,0-3.9-1.7-3.9-3.9v-29.7c0-2.1,1.7-3.9,3.9-3.9h163.3c2.1,0,3.9,1.7,3.9,3.9v29.7
					C326.1,308.2,324.4,310,322.2,310z"/>
				<g>
					<text transform="matrix(1 0 0 1 162.2485 302.4139)" class="st8 st9 st10">LAWYERS</text>
				</g>
			</g>
		</g>
		<g>
			<g>
				<rect x="207.2" y="236.7" class="st11" width="55.2" height="10.4"/>
				<path class="st12" d="M264.2,236.7v-0.6c0-0.8-0.6-1.4-1.4-1.4h-65.8c-1.4,0-2.6,1.2-2.6,2.6v9.1c0,1.4,1.2,2.6,2.6,2.6h65.8
					c0.8,0,1.4-0.6,1.4-1.4v-0.4h-48.5c-2.1,0-3.8-1.7-3.8-3.8v-2.8c0-2.1,1.7-3.8,3.8-3.8H264.2z"/>
				<path class="st13" d="M209,234.7c0,0-1.4,1.9-1.4,7.1c0,5.3,1.4,7.1,1.4,7.1H206c0,0-1.4-1.9-1.4-7c0-5.2,1.5-7.3,1.5-7.3H209z"
					/>
				<path class="st13" d="M200.4,234.7h-2.8h-0.3h-0.4c-1.4,0-2.6,1.2-2.6,2.6v9.1c0,1.4,1.2,2.6,2.6,2.6h0.4h0.3h2.8
					c0,0-1.4-1.9-1.4-7.1C199,236.5,200.4,234.7,200.4,234.7z"/>
				<line class="st14" x1="216.8" y1="239.2" x2="260.7" y2="239.2"/>
				<line class="st14" x1="217.5" y1="241.9" x2="259.5" y2="241.9"/>
				<line class="st14" x1="215.2" y1="245.1" x2="260.7" y2="245.1"/>
			</g>
			<g>
				
					<rect x="191.4" y="222.4" transform="matrix(-1 -1.224647e-16 1.224647e-16 -1 438.0788 455.3036)" class="st11" width="55.2" height="10.4"/>
				<path class="st15" d="M189.6,222.4v-0.6c0-0.8,0.6-1.4,1.4-1.4h65.8c1.4,0,2.6,1.2,2.6,2.6v9.1c0,1.4-1.2,2.6-2.6,2.6H191
					c-0.8,0-1.4-0.6-1.4-1.4v-0.4h48.5c2.1,0,3.8-1.7,3.8-3.8v-2.8c0-2.1-1.7-3.8-3.8-3.8H189.6z"/>
				<path class="st16" d="M244.8,220.4c0,0,1.4,1.9,1.4,7.1c0,5.3-1.4,7.1-1.4,7.1h3.1c0,0,1.4-1.9,1.4-7c0-5.2-1.5-7.3-1.5-7.3
					H244.8z"/>
				<path class="st16" d="M253.4,220.4h2.8h0.3h0.4c1.4,0,2.6,1.2,2.6,2.6v9.1c0,1.4-1.2,2.6-2.6,2.6h-0.4h-0.3h-2.8
					c0,0,1.4-1.9,1.4-7.1C254.8,222.3,253.4,220.4,253.4,220.4z"/>
				<line class="st14" x1="237" y1="224.9" x2="193.1" y2="224.9"/>
				<line class="st14" x1="236.3" y1="227.7" x2="194.3" y2="227.7"/>
				<line class="st14" x1="238.6" y1="230.8" x2="193.1" y2="230.8"/>
			</g>
			<g>
				
					<rect x="197.4" y="208.2" transform="matrix(-1 -1.224647e-16 1.224647e-16 -1 450.0256 426.7436)" class="st11" width="55.2" height="10.4"/>
				<path class="st17" d="M195.6,208.2v-0.6c0-0.8,0.6-1.4,1.4-1.4h65.8c1.4,0,2.6,1.2,2.6,2.6v9.1c0,1.4-1.2,2.6-2.6,2.6H197
					c-0.8,0-1.4-0.6-1.4-1.4v-0.4h48.5c2.1,0,3.8-1.7,3.8-3.8V212c0-2.1-1.7-3.8-3.8-3.8H195.6z"/>
				<path class="st18" d="M250.8,206.1c0,0,1.4,1.9,1.4,7.1c0,5.3-1.4,7.1-1.4,7.1h3.1c0,0,1.4-1.9,1.4-7c0-5.2-1.5-7.3-1.5-7.3
					H250.8z"/>
				<path class="st18" d="M259.4,206.1h2.8h0.3h0.4c1.4,0,2.6,1.2,2.6,2.6v9.1c0,1.4-1.2,2.6-2.6,2.6h-0.4h-0.3h-2.8
					c0,0,1.4-1.9,1.4-7.1C260.8,208,259.4,206.1,259.4,206.1z"/>
				<line class="st14" x1="243" y1="210.6" x2="199.1" y2="210.6"/>
				<line class="st14" x1="242.3" y1="213.4" x2="200.3" y2="213.4"/>
				<line class="st14" x1="244.6" y1="216.6" x2="199.1" y2="216.6"/>
			</g>
		</g>
		<g>
			<path class="st19" d="M131.7,152.7c-0.9,0.8-1.8,2.1-1.8,4.1h3.4h3.4c0-2-0.9-3.3-1.8-4.1C134,151.8,132.6,151.8,131.7,152.7z"/>
			<rect x="99.5" y="240.8" class="st20" width="67.6" height="8.2"/>
			<polygon class="st21" points="155.6,236.7 133.3,236.7 111,236.7 108,240.8 133.3,240.8 158.7,240.8 			"/>
			<rect x="128" y="209.3" class="st20" width="10.6" height="27.4"/>
			<rect x="130.6" y="171.9" class="st6" width="5.3" height="37.4"/>
			<path class="st20" d="M135.4,173.8h-4.3c-1.7,0-3-1.3-3-3v-14.6h10.3v14.6C138.4,172.5,137.1,173.8,135.4,173.8z"/>
			<g>
				<path class="st22" d="M72.3,203.9c-0.1,0.4-0.1,0.8-0.1,1.2c0,5.8,6.8,10.5,15.1,10.5s15.1-4.7,15.1-10.5c0-0.4,0-0.8-0.1-1.2
					H72.3z"/>
				<g>
					<line class="st23" x1="73.5" y1="201.2" x2="87.3" y2="177"/>
					<line class="st23" x1="101.1" y1="201.2" x2="87.3" y2="177"/>
				</g>
				<path class="st22" d="M128.2,156.3H124c-2.1,0-4.2,0.5-6,1.6c-2.9,1.6-7.6,4.3-12.4,7.7c-7.9,5.5-10,7.7-19.1,8c0,0,2.6-5-2-5.9
					c-4.6-0.9-6.9,4-5.4,7.5c1.5,3.5,10.2,5.4,20.1,2.7c4.8-1.3,15.9-8.2,21.5-8.5c5.6-0.3,7.5,1,7.5,1V156.3z"/>
				<path class="st21" d="M100,199.9H74.7c-1.7,0-3,1.3-3,3v1.7H103v-1.7C103,201.3,101.6,199.9,100,199.9z"/>
			</g>
			<g>
				<path class="st22" d="M194.3,203.9c0.1,0.4,0.1,0.8,0.1,1.2c0,5.8-6.8,10.5-15.1,10.5c-8.4,0-15.1-4.7-15.1-10.5
					c0-0.4,0-0.8,0.1-1.2H194.3z"/>
				<g>
					<line class="st23" x1="193.1" y1="201.2" x2="179.3" y2="177"/>
					<line class="st23" x1="165.5" y1="201.2" x2="179.3" y2="177"/>
				</g>
				<path class="st22" d="M138.4,156.3h4.1c2.1,0,4.2,0.5,6,1.6c2.9,1.6,7.6,4.3,12.4,7.7c7.9,5.5,10,7.7,19.1,8c0,0-2.6-5,2-5.9
					c4.6-0.9,6.9,4,5.4,7.5c-1.5,3.5-10.2,5.4-20.1,2.7c-4.8-1.3-15.9-8.2-21.5-8.5c-5.6-0.3-7.5,1-7.5,1V156.3z"/>
				<path class="st21" d="M166.6,199.9H192c1.7,0,3,1.3,3,3v1.7h-31.3v-1.7C163.6,201.3,165,199.9,166.6,199.9z"/>
			</g>
		</g>
		<g>
			<path class="st17" d="M392.7,363.4c0,0,1.4-31.3-5.2-42.8c0,0-15.1,12.6-18.9,38.7c-3.8,26.1,6.6,31.3,6.6,31.3h17.5V363.4z"/>
			<path class="st24" d="M384.4,329.5c0,0-5.6,27.9-6.4,55.7"/>
			<path class="st25" d="M383.4,381.7c0,0,1.9-25.2,27.1-42c0,0-1.4,32.4-13.6,42H383.4z"/>
			<path class="st24" d="M405,349.5c0,0-11.3,20.3-15.1,33.7"/>
			<g>
				<path class="st26" d="M373.6,443.1h25.6c0,0,11.9-30.8,6.1-54.9h-50.3c0,0-0.3,37.4,9.8,54.9H373.6z"/>
				<path class="st27" d="M406.8,406.5c-2.3-0.2-6.4-0.2-9.6,1.6c-4.9,2.8-11.8,7.3-20.2,5.9c-7.8-1.3-9.4-7.5-21.1-7.7
					c0.1,1.6,0.3,3.3,0.5,5.1c3.2,0.4,7.9,1.7,12,5.6c7.2,6.7,19.3,2.9,24.3-0.5c4.2-2.8,9.6-5.3,13.8-5.4
					C406.6,409.5,406.7,408,406.8,406.5z"/>
				<path class="st28" d="M355.1,388.2c0,0,0,2.2,0.1,5.8h39.5c3.7,0,6.8,3,6.9,6.7c0.3,11.1-0.6,32.9-11.3,42.4h8.9
					c0,0,11.9-30.8,6.1-54.9H355.1z"/>
				<path class="st29" d="M355.4,389.1h48.9c2.2,0,3.9-1.8,3.9-3.9l0,0c0-2.2-1.8-3.9-3.9-3.9h-48.9c-2.2,0-3.9,1.8-3.9,3.9l0,0
					C351.4,387.4,353.2,389.1,355.4,389.1z"/>
			</g>
		</g>
		<g>
			<path class="st30" d="M165.4,160.1c0,0-4-43.2-8.2-66c0,0,8.3-4.5,16.6-2.3C173.8,91.8,170.5,152.5,165.4,160.1z"/>
			<path class="st31" d="M209.6,158.4l-0.8,5.7c0,0-16.9,0.8-25.3-0.6c-8.4-1.4-18-3.3-18-3.3s5.4-46.7,3.4-73.4
				c0,0,29.5-1.3,47.3,11.2l-2.3,31.4l5.5,3.1L209.6,158.4z"/>
			<path class="st32" d="M362.4,413.6l4.9,11.2c0,0-10.1,11.6-13,18.4h41.8l-9.7-37.4L362.4,413.6z"/>
			<path class="st33" d="M389,415.7l-2.6-10.1l-24.1,7.9l3.8,8.7C366.2,422.3,382.6,416.1,389,415.7z"/>
			<path class="st32" d="M259.6,412.5v8.3c0,0-22.8,6.6-27,10.4s-1.9,11.3,1.3,11.9h53.5l-0.2-29.3"/>
			<path class="st33" d="M287.3,413.9l-27.6-1.4v8.3c0,0,21.9-0.1,27.7,0.8h0L287.3,413.9z"/>
			<path class="st34" d="M271.3,253.3c0,0-15.4,78.5-15.4,161.5l38.5,1c0,0,8-117.1,16.4-145.6c0,0,27.1,123,49.2,146.8
				c0,0,23-2.6,32.6-12.7c0,0-13.7-45.8-35.8-148.3"/>
			<g>
				<path class="st35" d="M312,274.9c5.2,22.8,28.6,121,48.1,142c0,0,23-2.6,32.6-12.7c0,0-1.3-4.5-3.9-13.8
					c-3.3,3.6-7.6,6.2-11.7,7.9c-7.9,3.3-17,0.3-21.5-6.9C336.4,360.4,312,275.1,312,274.9z"/>
				<path class="st35" d="M309.7,274.9L309.7,274.9c-8.9,22-17.5,87.5-20.9,115.6c-0.9,7.3-7.4,12.7-14.7,12.1l-18-1.3
					c-0.1,4.5-0.1,8.9-0.1,13.4l38.5,1C294.4,415.8,301.7,309.7,309.7,274.9z"/>
			</g>
			<path class="st35" d="M358.4,262.6c-0.5-2.2-1-4.4-1.4-6.6l-85.7-2.6c0,0-0.9,4.7-2.3,12.9l28.5,12.5l13-10.4l10.1,10.4
				L358.4,262.6z"/>
			<path class="st36" d="M226.2,145.7c0,0-2.1-0.5-2.4-5c-0.3-4.5-0.5-10.5-0.5-10.5s-4-4.1-8.6-4.1c-4.6,0-7.2,0.6-8.2,1.2
				c-1,0.5-0.9,3.8,1.3,4.4c2.2,0.6,3.7-0.1,5.5,0.6c0,0-3.6,12.4-3.8,26.1l4.2,1.8C213.8,160.1,223.7,150,226.2,145.7z"/>
			<path class="st33" d="M231.9,147.4l-4.1-3.2c0,0-10.9,10.5-14,15.9l4.4,6C218.2,166.2,230.6,152,231.9,147.4z"/>
			<path class="st37" d="M295.9,120.9c0,0-19.4,5.8-21.8,7.2c0,0-11.1,14.3-18.3,40.4l-23.8-21.1c0,0-13.4,14.6-16.7,21.1l33.3,32.6
				c2.1,2,5.4,1.8,7.3-0.4l16.8-20.4l2.3,33.2l-7.6,41l30.5,13.7l10.8-9.6l12.4,11.5l43.7-14.8l-2.5-6.4l-7.9-38.3
				c0,0,3.6-40.1,4.3-51.5c0.7-11.4,1.4-24.2-8.6-34.4c-5.9-5.9-24-7.2-24-7.2"/>
			<path class="st38" d="M327.5,193.1c-3.8,4.3-10,5.2-14.9,2.2l-42.7-26.5l-9.9,13.1c-4.3,5.6-12.3,6.8-18,2.7l-25.4-18.4
				c-0.6,0.9-1.1,1.7-1.4,2.4l33.3,32.6c2.1,2,5.4,1.8,7.3-0.4l16.8-20.4l2.3,33.2l-7.6,41l30.5,13.7l-10.1-8
				c-6.6-5.3-9.6-13.9-7.8-22.2l4.5-19.8c0.4-2,0.5-4,0.3-6l-1.4-10.9c-0.2-1.7,1.5-2.9,3-2.2l16,7.4c0.6,13.9,2,42.7,3.7,54.3
				l2.5-2.2c-0.4-5.2-2.2-27.8-3.6-50.9l13.8,6.4c4,1.9,8.8,0.1,10.7-3.9l19.6-41.8L327.5,193.1z"/>
			<path class="st38" d="M287.2,158.6l6.2,2.6l24.3,4.9l13.3-26l-5-22.3l-30.1,3.1c-9.1,8.8-9.7,38.4-9.7,38.4L287.2,158.6z"/>
			<path class="st39" d="M300.3,119.8l-4.5,1.1c0,0-6.5,11-6.4,39l14.2,6.1l6.9,2.6l5,1.7l13-25.2c0,0-2.4-16-2.5-27.2h-6.7
				L300.3,119.8z"/>
			<path class="st40" d="M298.4,137.7c0,0,0.1,11.1,2.6,19.3l12.3,0.7l4.4-23.6l-6.5-9.1C311.2,125,300.6,126.9,298.4,137.7z"/>
			<polygon class="st41" points="301,131.7 304.2,140.1 301,157 303.7,166 310.6,168.6 313.3,157.7 309.4,138.6 313,129.4 
				313,124.3 304.6,124.3 			"/>
			<path class="st42" d="M304.9,124.8l-1.3,1.5l-2.6,5.4l3.2,8.4c0,0,1.3-1.5,5.2-1.5l3.6-9.2v-4.6H304.9z"/>
			<path class="st33" d="M300.3,121.2c0,0-2.4,8.9-1.9,16.4l7.8-11.1l1.5,0.3l10,7.2c0,0,3.4-11.3,3.3-15.4L300.3,121.2z"/>
			<path class="st36" d="M285.9,82.4c0,0-6,13,0,23.9s13.6,10.9,13.6,10.9l1.4,6.8c0,0,4,2.3,6.2,2.9s13.7-7.5,13.8-8.2l-2.1-4.7
				l4-3.4c0,0,4.2,0.4,8.6-5.3c4.4-5.7,5.6-12.7,0.5-14.8c0,0-10.8-16.2-21.8-16.4S292.8,82,285.9,82.4z"/>
			<path class="st43" d="M280.7,73c0,0-2.2,10.7,7.7,10.9c9.2,0.2,24-5.7,24-5.7s-1.3,4.1-0.3,5.4c1,1.3,3.3-0.9,3.3-0.9
				s0.5,10.2,6.4,13.1c0,0,4.8-6.6,10.1-5.5c0,0,1.4-11.9-6-13.2c0,0-1.5-6.1-16.5-8C289.3,66.7,291.7,79,280.7,73z"/>
			<path class="st43" d="M301.8,88c0.2,0.2,0.6,0.5,1,0.7c0.4,0.1,0.8,0,1.1-0.3c0.4-0.4,1.3-1.1,3.1-1.2c1.8-0.1,3.5,1.2,4.3,2.1
				c0.4,0.4,1.2,0.4,1.6-0.1c0.4-0.4,0.7-1,0.6-1.8c0-0.2-0.1-0.4-0.2-0.5c-0.6-0.8-2.7-3.3-5.8-3.5c-3.4-0.2-5.4,1.8-5.9,3.7
				C301.4,87.3,301.5,87.7,301.8,88z"/>
			<path class="st43" d="M284.4,89c0.1,0.3,0.2,0.9,0.5,1.4c0.3,0.4,0.9,0.4,1.1,0c0.6-0.9,1.8-2.5,3.4-2.7c1.4-0.2,2.6-0.1,3.2,0
				c0.4,0.1,0.7-0.2,0.8-0.6c0.1-0.9,0.1-2.4-0.4-3.2c-0.1-0.1-0.2-0.2-0.4-0.3c-0.7-0.2-2.9-0.5-4.6-0.2c-1.8,0.4-3.3,4.4-3.6,5.2
				C284.4,88.7,284.4,88.8,284.4,89z"/>
			<path class="st44" d="M288.4,83.9c9.2,0.2,24-5.7,24-5.7s-1.3,4.1-0.3,5.4c1,1.3,3.3-0.9,3.3-0.9s0.5,10.2,6.4,13.1
				c0,0,4.8-6.6,10.1-5.5c0,0,1.4-11.9-6-13.2c-5.6,3.5-12,0-12,0l1.4-2.6c0,0-7.9,5.4-20.9,5.9c-13,0.4-13.8-7.4-13.8-7.4
				S278.5,83.8,288.4,83.9z"/>
			<path class="st45" d="M308.1,95.1c0.2,1.7-0.2,3.1-1,3.2c-0.7,0.1-1.4-1.2-1.6-2.9c-0.2-1.7,0.2-3.1,1-3.2
				C307.2,92.1,308,93.4,308.1,95.1z"/>
			<path class="st45" d="M292.2,95.5c0.2,1.7-0.2,3.1-1,3.2c-0.7,0.1-1.4-1.2-1.6-2.9c-0.2-1.7,0.2-3.1,1-3.2
				C291.3,92.5,292,93.8,292.2,95.5z"/>
			<path class="st46" d="M296.9,96.4v8.3c0,0,1.7,0.3,3.4,0.2"/>
			<path class="st47" d="M301.4,108.2l12.2-6.9c1.2-0.7,2.6,0.1,2.7,1.5c0.1,2,0,4.6-1.2,5.8c-1.5,1.5-4,2.6-5.5,3.1
				c-1.3,0.5-2.6,0.7-4,0.4c-1.4-0.2-3.1-0.9-4.5-2.8C300.8,109.1,301,108.5,301.4,108.2z"/>
			<path class="st48" d="M307.7,112.2c0.6-0.1,1.3-0.2,1.9-0.5c1.5-0.5,4-1.6,5.5-3.1c1.2-1.2,1.3-3.8,1.2-5.8
				c0-0.7-0.4-1.2-0.9-1.5C310.3,103.7,308.3,109.9,307.7,112.2z"/>
			<path class="st49" d="M330.7,96.7c0,0-2.9,1.7-4.7,6.7"/>
			<path class="st49" d="M331,99.6c0,0-2.3,0.1-4.1,1.8"/>
			<path class="st50" d="M320.8,107.4c0,0,1.1,2.2,1.9,2.6s2.2-0.1,2.2-0.1"/>
			<path class="st51" d="M299.5,117.2c0,0,8.7,1.6,14.3-1.1l-1.1,2.3c0,0-5,4.7-12.1,3.8L299.5,117.2z"/>
			<path class="st33" d="M272.1,175.2c0,0,0.5,3.2,4.4,3.4l11.3-19.6c0,0-1.1-2.3-4.5-2.2L272.1,175.2z"/>
			<path class="st36" d="M283.3,156.8l-11.1,18.4c0,0-4.7,1-6.7-3.1c0,0-0.8,0.8-3.9-0.5c-3.1-1.4-5.9-4-6.1-4.5s0.4-2.2,0.4-2.2
				s-0.4-2.1,0-3.7c0.4-1.6,2.3-6.2,2.3-6.2s1.2-7.3,5-8c0,0-6.4-5.3-9.7-7c-0.4-0.2-0.6-0.5-0.7-0.9c-0.4-1.4-0.9-4.4,1.8-5
				c3.5-0.8,15.4,9.7,15.4,9.7s2.3-1.3,4.5-0.5C276.5,144,283.3,156.8,283.3,156.8z"/>
			<g>
				<path class="st47" d="M263,167.1c0.8,1.5,1.5,3.2,2.6,4.5c0.4,0.3-0.2,0.9-0.5,0.5c-1.1-1.5-1.7-3.2-2.4-4.9
					C262.5,167,262.9,166.9,263,167.1L263,167.1z"/>
			</g>
			<g>
				<path class="st47" d="M256,164.2l3.3-2.8l1.6-1.4c0.8-0.4,1.5-0.1,2.3,0c0.1,0,0.2,0.1,0.2,0.3c0,0.1-0.1,0.2-0.3,0.2
					c-0.5-0.1-1-0.1-1.6-0.1c-0.2,0-0.3,0-0.4,0.1l-1.6,1.4l-3.2,2.9C256.1,165.1,255.6,164.6,256,164.2L256,164.2z"/>
			</g>
			<g>
				<path class="st47" d="M258.3,154.5c1.2-0.4,4.2-1.4,5.4-1.7c0.6-0.2,1.2-0.4,1.9-0.5c0.1,0,0.2,0.1,0.3,0.2
					c0,0.1-0.1,0.2-0.2,0.3c-2,0.5-5.1,1.7-7.1,2.5C258.1,155.3,257.8,154.6,258.3,154.5L258.3,154.5z"/>
			</g>
			<g>
				<path class="st47" d="M263.3,146.5c1.3-0.3,2.5-0.6,3.9-0.7c0.1,0,0.3,0.1,0.3,0.3c0,0.1-0.1,0.3-0.3,0.3
					c-1.2,0.1-2.5,0.5-3.7,0.9C263,147.4,262.8,146.7,263.3,146.5L263.3,146.5z"/>
			</g>
			<g>
				<path class="st47" d="M274.4,148.3l-4.8-4.4c-0.4-0.3,0.1-0.9,0.5-0.6c0,0,4.5,4.7,4.5,4.7C274.8,148.2,274.6,148.4,274.4,148.3
					L274.4,148.3z"/>
			</g>
			<path class="st52" d="M287.8,159c0,0,29.5,11.8,37,16.3"/>
			<path class="st52" d="M315.6,170.2l19.8-38.6c0,0,3-5.7,7.1-6.8"/>
			<path class="st52" d="M276.5,178.6l-2.1,4.3l38.9,22.5c0,0,8,6.2,14.5,0l22.9-39.5"/>
			<path class="st52" d="M308.7,257.4c0,0-3.4-26-4-56.9"/>
			<circle class="st53" cx="312.8" cy="215.4" r="2.3"/>
			<circle class="st53" cx="314.6" cy="238.1" r="2.3"/>
			<g>
				<path class="st47" d="M211.3,143.6c0.1-3.8,0.3-8.2,3.4-10.8c0,0-0.1,0.5-0.1,0.5c-0.9-0.9-2.5-1.1-3.7-1.1
					c-0.1,0-0.2-0.1-0.2-0.2c0-0.1,0.1-0.2,0.2-0.2c0.7-0.1,1.5-0.1,2.2,0.1c0.5,0.1,2.7,0.7,2.1,1.5c-1.5,1.1-2.2,3-2.6,4.7
					c-0.4,1.8-0.6,3.7-0.6,5.6C212.1,144,211.3,144.1,211.3,143.6L211.3,143.6z"/>
			</g>
			<path class="st54" d="M183,97.9c0,0,15.7-0.9,25.7,4.7"/>
			<path class="st54" d="M177.1,105.8c0,0,21.4,1.1,31.7,5.8"/>
			<path class="st54" d="M177.1,113.9c0,0,4.6,1,10.6,1.6c7.9,0.8,18.2,1.5,22.2,4.9"/>
			<path class="st54" d="M177.1,123.4c0,0,21.5,1.1,26.8,3.1"/>
			<path class="st54" d="M177.1,134.4c0,0,20-2.5,29.9,4.1"/>
			<path class="st54" d="M176.1,144.8c0,0,21.6,0.7,28.8,2.9"/>
		</g>
		<g>
			<path class="st17" d="M128.4,357c0,0,1.4-3,5.8-6.2c4.3-3.2,6.7-9.9,7.1-14c0.5-4.1,2.6-20.9,9.8-21.7
				c7.2-0.7,10.7,10.8,9.8,17.8c-0.8,7-9.7,21.7-11.6,25.7c-1.9,4-2.3,11.8-1.2,17.3h-14.6L128.4,357z"/>
			<path class="st24" d="M152.8,322.9c0,0-9.7,41.4-19.4,53.8"/>
			<path class="st17" d="M99.7,375.4c0,0-3-3.8-3.2-11.8c-0.2-8,0.5-12.9-4.9-18.4c-5.4-5.5-8.6-10.1-9.9-17.1s-1.4-13.8,5.5-13.9
				c6.9-0.1,15.9,10.5,18,19.1c2.1,8.6,2.7,17.6,12.7,16.9v25.1H99.7z"/>
			<path class="st24" d="M92.8,327.2c0,0,13.9,18.4,16.2,41.8"/>
			<path class="st25" d="M106.5,375.8c0,0-3.7-8.9,1.1-14.3c4.8-5.4,11.6-15.6,9.6-25.7c-2-10.1-3-19.7,1.8-23.2
				c4.8-3.5,12.2-2.2,15.8,5.5c3.6,7.7-0.6,23.9-1.9,26.8c-1.3,2.9-3.7,8.6,1.2,16.7c4.9,8,0.8,14.2,0.8,14.2H106.5z"/>
			<path class="st24" d="M123.7,318.7c0,0,2.5,33.8-4.7,56.8"/>
			<path class="st26" d="M104,443.1h38.9c0,0,13-24,7.4-61.9H96.1c0,0-3.6,14-1.1,31C97.5,429.1,104,443.1,104,443.1z"/>
			<path class="st27" d="M151.7,402.3c-3-0.2-8.3,0.1-13.1,2.9c-7.1,4.2-15.6,6.6-22.4,1.9c-6.8-4.7-12.5-5.7-17.6-4.3
				c-1.8,0.5-3.2,0.9-4.3,1.3c0.1,1.3,0.2,2.6,0.3,4c2.2-1.2,7.3-3.3,12.3-1c6.7,3,12.8,9.8,19.8,9.7c6.4-0.1,14.8-9,24.9-9.3
				C151.6,405.7,151.6,404.1,151.7,402.3z"/>
			<path class="st28" d="M100.4,394.6c0.1-4,3.3-7.1,7.3-7.1h43.4c-0.2-2-0.4-4.1-0.8-6.2H96.1c0,0-3.6,14-1.1,31
				c2.5,16.9,9,31,9,31h12.2C101,439.8,100,408.8,100.4,394.6z"/>
			<path class="st29" d="M148.4,382.6H97.2c-2.4,0-4.4-2-4.4-4.4l0,0c0-2.4,2-4.4,4.4-4.4h51.2c2.4,0,4.4,2,4.4,4.4l0,0
				C152.8,380.7,150.8,382.6,148.4,382.6z"/>
		</g>
		<g>
			<g>
				<polygon class="st55" points="403.2,163.3 440.2,200.8 444,197 406.4,158.8 				"/>
				<polygon class="st56" points="400,164.8 401.9,166.6 410.3,157.9 407.9,155.6 				"/>
				<polygon class="st57" points="382.6,159 403.6,138 414.1,148.5 393.5,169.8 				"/>
				<path class="st58" d="M384.2,155.7l12.3,12c0.3,0.3,0.9,0.3,1.2,0l14.4-14.9c0.3-0.3,0.3-0.9,0-1.2l-12.1-11.7
					c-0.3-0.3-0.9-0.3-1.2,0l-14.7,14.7C383.9,154.8,383.9,155.4,384.2,155.7z"/>
				<path class="st55" d="M402.3,137.5l13.1,12.5c0.2,0.2,0.6,0.2,0.9,0l1.9-1.7c0.3-0.3,0.3-0.7,0-1l-13.6-12.8
					c-0.3-0.3-0.8-0.2-1,0.1l-1.3,2C402,136.9,402,137.2,402.3,137.5z"/>
				<path class="st55" d="M381.5,157.2l13.3,13.2c0.2,0.2,0.3,0.6,0.1,0.9l-1.7,2.3c-0.2,0.3-0.7,0.4-1,0.1l-13.7-13.8
					c-0.3-0.3-0.3-0.7,0.1-1l2-1.7C380.9,157,381.3,157,381.5,157.2z"/>
				<path class="st57" d="M426.5,176.7l-6.2,6.4c-0.1,0.2-0.1,0.4,0,0.5l2,2.1c0.2,0.2,0.4,0.2,0.6,0l6-6.5c0.1-0.1,0.1-0.4,0-0.5
					l-1.9-2C426.9,176.6,426.6,176.6,426.5,176.7z"/>
				<path class="st57" d="M443.2,193.7l-6.2,6.4c-0.1,0.2-0.1,0.4,0,0.5l2,2.1c0.2,0.2,0.4,0.2,0.6,0l6-6.5c0.1-0.1,0.1-0.4,0-0.5
					l-1.9-2C443.6,193.6,443.4,193.6,443.2,193.7z"/>
			</g>
			<g>
				<polygon class="st57" points="373.5,188.6 375,185 408.7,197.2 407.7,200.8 				"/>
				<polygon class="st59" points="368.4,190.6 370,186.5 411.8,201.6 410.5,205.7 				"/>
			</g>
		</g>
		<g>
			<circle class="st60" cx="116.5" cy="101.5" r="19.7"/>
			<circle class="st8" cx="116.5" cy="101.5" r="19.7"/>
			<g>
				<path class="st61" d="M128.2,85.6c-0.3-0.2-0.7-0.5-1-0.7l-4.2,1.5l0.3,0.9L128.2,85.6z"/>
				<path class="st61" d="M128.2,110.8l-3.5,3.7l3.9,2.6c0.3-0.2,0.5-0.4,0.8-0.7l-3.1-2.1l2.2-2.4l3.7,1.5c0.2-0.3,0.4-0.5,0.6-0.8
					L128.2,110.8z"/>
				<path class="st61" d="M130.7,87.8l-5.8,2.8l2.4,5.4l7.2-2.5c-0.1-0.3-0.3-0.6-0.4-0.9l-6.2,2.1l-1.6-3.7l5.2-2.5
					C131.2,88.3,130.9,88.1,130.7,87.8z"/>
				<path class="st61" d="M136.2,100.4c0-0.3,0-0.7-0.1-1l-5.6,0.4l-1.3,5.6l6.3,1.5c0.1-0.3,0.2-0.6,0.2-1l-5.4-1.3l0.9-3.9
					L136.2,100.4z"/>
			</g>
			<circle class="st19" cx="112.5" cy="101.5" r="19.7"/>
			<circle class="st8" cx="112.5" cy="101.5" r="15.1"/>
			<g>
				<g>
					<path class="st6" d="M118.9,105.2c0,1.6-0.6,2.8-1.7,3.8c-1.1,0.9-2.6,1.4-4.4,1.4c-1.2,0-2.5-0.2-3.7-0.7
						c-0.8-0.3-1.5-0.6-2.2-1c-0.7-0.4-0.9-1.3-0.5-2l0.1-0.2c0.4-0.7,1.3-0.9,2-0.5c1.5,0.9,3,1.4,4.4,1.4c0.8,0,1.4-0.2,1.9-0.5
						c0.5-0.4,0.7-0.8,0.7-1.4c0-0.8-1.1-1.6-3.3-2.2c-0.2-0.1-0.3-0.1-0.4-0.1c-3.4-0.9-5.2-2.5-5.2-4.7c0-1.5,0.6-2.8,1.8-3.7
						c1.2-0.9,2.7-1.4,4.6-1.4c1.4,0,2.8,0.3,4.1,1c0.7,0.4,1,1.2,0.6,2l0,0c-0.4,0.7-1.2,1-1.9,0.7c-1-0.4-2-0.7-3.1-0.7
						c-0.8,0-1.5,0.2-2,0.5c-0.5,0.3-0.8,0.8-0.8,1.4c0,0.5,0.3,0.9,0.8,1.2c0.4,0.2,0.9,0.4,1.6,0.5c0.7,0.2,1.3,0.3,1.8,0.5
						c0.5,0.2,1,0.4,1.5,0.6c0.5,0.2,1,0.5,1.6,0.9C118.3,102.4,118.9,103.6,118.9,105.2z"/>
				</g>
				<path class="st6" d="M112.8,95.2L112.8,95.2c-0.9,0-1.6-0.7-1.6-1.6v-2.3c0-0.9,0.7-1.6,1.6-1.6l0,0c0.9,0,1.6,0.7,1.6,1.6v2.3
					C114.3,94.5,113.6,95.2,112.8,95.2z"/>
				<path class="st6" d="M112.8,113.3L112.8,113.3c-0.9,0-1.6-0.7-1.6-1.6v-2.3c0-0.9,0.7-1.6,1.6-1.6l0,0c0.9,0,1.6,0.7,1.6,1.6
					v2.3C114.3,112.6,113.6,113.3,112.8,113.3z"/>
			</g>
		</g>
		<g>
			<path class="st62" d="M223.8,44.7c0,0,1.1-18.7,16.8-15.8c13.2,2.4,7.8,21.1,7.8,21.1h-2.5c0,0,3.1-15-5.5-17.3
				c-8.6-2.3-13.8,7.6-14,12.4L223.8,44.7z"/>
			<path class="st6" d="M243.6,75l-24.6-4.7c-2.2-0.4-3.7-2.6-3.2-4.8l3.6-18.9c0.4-2.2,2.6-3.7,4.8-3.2l24.6,4.7
				c2.2,0.4,3.7,2.6,3.2,4.8l-3.6,18.9C247.9,74,245.8,75.5,243.6,75z"/>
			<path class="st63" d="M238.3,56.2c0.5-2.4-1.4-4.7-4-4.6c-1.4,0-2.7,0.9-3.3,2.2c-0.7,1.5-0.3,3,0.5,4l-0.9,6.4
				c-0.1,0.5,0.3,1,0.8,1.1l1.1,0.2l1.1,0.2c0.5,0.1,1-0.2,1.2-0.7l1.5-6.3C237.4,58.3,238.1,57.3,238.3,56.2z"/>
		</g>
		<g>
			<path class="st19" d="M375.2,54.7c-10.1,0-18.4,8.2-18.4,18.3c0,10.1,8.2,18.4,18.4,18.4s18.4-8.2,18.4-18.4
				C393.6,62.9,385.4,54.7,375.2,54.7z M375.2,82.9c-5.4,0-9.8-4.4-9.8-9.8c0-5.4,4.4-9.8,9.8-9.8s9.8,4.4,9.8,9.8
				C385.1,78.5,380.6,82.9,375.2,82.9z"/>
			
				<ellipse transform="matrix(0.9998 -1.872576e-02 1.872576e-02 0.9998 -1.3019 7.0393)" class="st8" cx="375.2" cy="73" rx="6.1" ry="6.1"/>
			<path class="st19" d="M378.2,61.3h-5.9c-0.5,0-0.8-0.4-0.8-0.8V48.9c0-0.5,0.4-0.8,0.8-0.8h5.9c0.5,0,0.8,0.4,0.8,0.8v11.6
				C379,60.9,378.6,61.3,378.2,61.3z"/>
			<path class="st19" d="M369,62.7l-4.2,4.2c-0.3,0.3-0.9,0.3-1.2,0l-8.2-8.2c-0.3-0.3-0.3-0.9,0-1.2l4.2-4.2c0.3-0.3,0.9-0.3,1.2,0
				l8.2,8.2C369.4,61.8,369.4,62.3,369,62.7z"/>
			<path class="st19" d="M363.5,70.1V76c0,0.5-0.4,0.8-0.8,0.8h-11.6c-0.5,0-0.8-0.4-0.8-0.8v-5.9c0-0.5,0.4-0.8,0.8-0.8h11.6
				C363.1,69.3,363.5,69.6,363.5,70.1z"/>
			<path class="st19" d="M364.9,79.2l4.2,4.2c0.3,0.3,0.3,0.9,0,1.2l-8.2,8.2c-0.3,0.3-0.9,0.3-1.2,0l-4.2-4.2
				c-0.3-0.3-0.3-0.9,0-1.2l8.2-8.2C364,78.9,364.5,78.9,364.9,79.2z"/>
			<path class="st19" d="M372.3,84.8h5.9c0.5,0,0.8,0.4,0.8,0.8v11.6c0,0.5-0.4,0.8-0.8,0.8h-5.9c-0.5,0-0.8-0.4-0.8-0.8V85.6
				C371.4,85.1,371.8,84.8,372.3,84.8z"/>
			<path class="st19" d="M381.4,83.4l4.2-4.2c0.3-0.3,0.9-0.3,1.2,0l8.2,8.2c0.3,0.3,0.3,0.9,0,1.2l-4.2,4.2c-0.3,0.3-0.9,0.3-1.2,0
				l-8.2-8.2C381.1,84.3,381.1,83.7,381.4,83.4z"/>
			<path class="st19" d="M387,76v-5.9c0-0.5,0.4-0.8,0.8-0.8h11.6c0.5,0,0.8,0.4,0.8,0.8V76c0,0.5-0.4,0.8-0.8,0.8h-11.6
				C387.3,76.8,387,76.5,387,76z"/>
			<path class="st19" d="M385.6,66.8l-4.2-4.2c-0.3-0.3-0.3-0.9,0-1.2l8.2-8.2c0.3-0.3,0.9-0.3,1.2,0l4.2,4.2c0.3,0.3,0.3,0.9,0,1.2
				l-8.2,8.2C386.5,67.2,385.9,67.2,385.6,66.8z"/>
		</g>
	</g>
</g>
</svg>
