<?xml version="1.0" encoding="utf-8"?>
<!-- Generator: Adobe Illustrator 23.1.0, SVG Export Plug-In . SVG Version: 6.00 Build 0)  -->
<svg version="1.1" xmlns="http://www.w3.org/2000/svg" xmlns:xlink="http://www.w3.org/1999/xlink" x="0px" y="0px"
	 viewBox="0 0 3710 3710" style="enable-background:new 0 0 3710 3710;" xml:space="preserve">
<style type="text/css">
	.st0{opacity:0.3;fill:url(#SVGID_1_);}
	.st1{fill:url(#SVGID_2_);}
	.st2{opacity:0.25;fill:#FFFFFF;}
	.st3{fill:url(#SVGID_3_);}
	.st4{fill:url(#SVGID_4_);}
	.st5{fill:url(#SVGID_5_);}
	.st6{opacity:0.6;fill:#FFFFFF;}
	.st7{opacity:0.58;fill:#FFFFFF;}
	.st8{fill:#FFFFFF;}
	.st9{fill:url(#SVGID_6_);}
	.st10{fill:url(#SVGID_7_);}
	.st11{fill:url(#SVGID_8_);}
	.st12{fill:url(#SVGID_9_);}
	.st13{fill:url(#SVGID_10_);}
	.st14{fill:url(#SVGID_11_);}
	.st15{fill:url(#SVGID_12_);}
	.st16{fill:url(#SVGID_13_);}
	.st17{fill:url(#SVGID_14_);}
	.st18{fill:url(#SVGID_15_);}
	.st19{fill:url(#SVGID_16_);}
	.st20{fill:url(#SVGID_17_);}
	.st21{fill:url(#SVGID_18_);}
	.st22{fill:url(#SVGID_19_);}
	.st23{fill:url(#SVGID_20_);}
	.st24{fill:url(#SVGID_21_);}
	.st25{fill:url(#SVGID_22_);}
	.st26{fill:url(#SVGID_23_);}
	.st27{fill:url(#SVGID_24_);}
	.st28{fill:url(#SVGID_25_);}
	.st29{fill:url(#SVGID_26_);}
	.st30{fill:url(#SVGID_27_);}
	.st31{fill:url(#SVGID_28_);}
	.st32{fill:url(#SVGID_29_);}
	.st33{fill:url(#SVGID_30_);}
	.st34{fill:url(#SVGID_31_);}
	.st35{fill:url(#SVGID_32_);}
	.st36{fill:url(#SVGID_33_);}
	.st37{fill:url(#SVGID_34_);}
	.st38{fill:url(#SVGID_35_);}
	.st39{fill:url(#SVGID_36_);}
	.st40{fill:url(#SVGID_37_);}
	.st41{fill:url(#SVGID_38_);}
	.st42{fill:url(#SVGID_39_);}
	.st43{fill:url(#SVGID_40_);}
	.st44{fill:url(#SVGID_41_);}
	.st45{fill:url(#SVGID_42_);}
	.st46{fill:#666694;}
	.st47{fill:url(#SVGID_43_);}
	.st48{fill:url(#SVGID_44_);}
	.st49{fill:url(#SVGID_45_);}
	.st50{fill:url(#SVGID_46_);}
	.st51{fill:url(#SVGID_47_);}
	.st52{fill:url(#SVGID_48_);}
	.st53{fill:url(#SVGID_49_);}
	.st54{fill:url(#SVGID_50_);}
	.st55{fill:url(#SVGID_51_);}
	.st56{fill:url(#SVGID_52_);}
	.st57{opacity:0.2;fill:url(#SVGID_53_);}
	.st58{fill:url(#SVGID_54_);}
	.st59{opacity:0.8;fill:#FFFFFF;}
	.st60{fill:url(#SVGID_55_);}
	.st61{opacity:0.47;}
	.st62{fill:url(#SVGID_56_);}
	.st63{fill:url(#SVGID_57_);}
	.st64{fill:url(#SVGID_58_);}
	.st65{fill:url(#SVGID_59_);}
	.st66{fill:url(#SVGID_60_);}
	.st67{fill:url(#SVGID_61_);}
</style>
<g id="Background">
</g>
<g id="Illustration">
	<g>
		<linearGradient id="SVGID_1_" gradientUnits="userSpaceOnUse" x1="3587.7512" y1="4031.9573" x2="1127.3618" y2="976.3081">
			<stop  offset="0" style="stop-color:#B37CFF"/>
			<stop  offset="1" style="stop-color:#F895E7"/>
		</linearGradient>
		<path class="st0" d="M2910.9,2826.9c-56.5,59.5-110,97.9-152.2,128.2c-496.6,356.3-1084.2,252.5-1209.1,227.1
			c-184.4-37.5-540.9-109.9-798.6-412.9c-389.9-458.5-329.2-1181-26.8-1657.8c55.3-87.2,347.6-571.4,941.5-649
			c359.5-47,778.5,47.8,1081.9,302C3384.5,1298,3339.1,2376.1,2910.9,2826.9z"/>
		<g>
			<g>
				
					<linearGradient id="SVGID_2_" gradientUnits="userSpaceOnUse" x1="1808.7468" y1="1756.4742" x2="2653.333" y2="1756.4742" gradientTransform="matrix(0.9973 7.420000e-02 -7.420000e-02 0.9973 -903.4147 -587.5778)">
					<stop  offset="0" style="stop-color:#CE1567"/>
					<stop  offset="1" style="stop-color:#7A1DBC"/>
				</linearGradient>
				<path class="st1" d="M1357.5,2185.4c0,0,40.7-360.7-117.2-472.3c-157.9-111.5-469.1-200.2-434.9-720.3
					c20-304.5,24.3-438,24.4-496.4c0-22.8,21.7-39.2,43.7-33.1c155.1,43.7,656.5,211.5,732.8,570.7
					C1696.8,1459.9,1357.5,2185.4,1357.5,2185.4z"/>
				<path class="st2" d="M982.7,618.7c159.4,169.8,335.3,460.7,417.7,743.4c9.7,46.2,41.2,145.6,43.5,317.2
					c2.9,143.3-18.1,292.5-45.8,390.1c-1.7,6.2-8.2,9.8-14.3,8c-10.6-3-8.1-14.5-8.1-14.1c36.6-167.7,46.4-379.5,14-574.3
					c-42.2-239.4-162.6-478.6-290.8-683.8l-13.3-20.3C985.9,630.3,962.3,627.2,973.7,618C976.4,615.9,980.3,616.2,982.7,618.7z"/>
			</g>
			<g>
				<linearGradient id="SVGID_3_" gradientUnits="userSpaceOnUse" x1="1383.4286" y1="-665.892" x2="1283.3798" y2="134.5011">
					<stop  offset="0" style="stop-color:#A737D5"/>
					<stop  offset="1" style="stop-color:#EF497A"/>
				</linearGradient>
				<path class="st3" d="M1605.3,2724.8c25.2,14.7-223.2-349.2-269.4-895.6c-21.8-257.5,1-576.4-135-709.9
					c-113.2-111.1-528.5-76.5-664.7-61.8c-17,1.8-24.2,22.6-11.9,34.6c60.5,58.8,189,196.5,215.5,327.8
					c34.9,173,188.3,292.6,330.4,332.4c142.2,39.7,220.4,73.9,273.8,309.8C1397.5,2298,1533.7,2683,1605.3,2724.8z"/>
				<path class="st2" d="M720,1143c170.9,19.7,349.2,111.3,431.8,264.8l7.8,14.6c18,34.3,116.3,276,166.2,474.1
					c0.6,2.5-0.9,5-3.3,5.6c-4.2,1.1-5.9-3.6-5.6-3.2c-36.7-112.5-90.6-255.7-134.1-363c-46.5-117-79.2-196.4-198.8-278.8
					c-133.3-89.1-265.5-107-265.1-106.8c-2-0.4-3.4-2.3-3-4.3C716.3,1144.1,718.1,1142.8,720,1143z"/>
			</g>
		</g>
		<g>
			<linearGradient id="SVGID_4_" gradientUnits="userSpaceOnUse" x1="2092.1558" y1="1975.9489" x2="2867.4211" y2="415.418">
				<stop  offset="0" style="stop-color:#2B3582"/>
				<stop  offset="1" style="stop-color:#150E42"/>
			</linearGradient>
			<path class="st4" d="M1148.1,960.4c0-93.9,76.2-170.1,170.1-170.1h1446.6c79.8,0,145.6,62.5,149.7,142.2l106.8,2097.3
				c3.2,62.4-45.9,115-108.4,116.1l-1658,30.1c-58.7,1.1-106.8-46.2-106.8-104.9V960.4z"/>
			<g>
				<linearGradient id="SVGID_5_" gradientUnits="userSpaceOnUse" x1="1779.0322" y1="2576.3904" x2="3434.4653" y2="-933.1221">
					<stop  offset="0" style="stop-color:#53D8FF"/>
					<stop  offset="1" style="stop-color:#3840F7"/>
				</linearGradient>
				<path class="st5" d="M1266.6,822.6c-0.2-30.1,26.3-53.3,56-49.3c197.5,26.8,876.9,109.6,1438.5,66.5c25.6-2,47.8,17.4,49.2,43.1
					l112,2106.6c1.5,28.9-20.5,53.6-49.4,55.3c-236.2,14-1209,68-1556,31.7c-21.1-2.2-37.1-20-37.3-41.2L1266.6,822.6z"/>
				<path class="st6" d="M1289.8,875.4c-0.2-28.9,25.3-51.3,53.9-47.4c190.1,25.8,843.8,105.5,1384.3,64c24.6-1.9,46,16.8,47.4,41.5
					l107.7,2027.3c1.5,27.8-19.7,51.6-47.5,53.2c-227.3,13.5-1163.5,65.5-1497.4,30.5c-20.3-2.1-35.8-19.2-35.9-39.7L1289.8,875.4z"
					/>
				<path class="st7" d="M2566,1208.4H1541.7c-5.8,0-10.4-4.7-10.4-10.4v-193.5c0-5.8,4.7-10.4,10.4-10.4H2566
					c5.8,0,10.4,4.7,10.4,10.4V1198C2576.4,1203.8,2571.8,1208.4,2566,1208.4z"/>
				<path class="st7" d="M2722.8,1991.3H1419.3c-3.2,0-5.9-2.6-5.9-5.9v-75.2c0-3.2,2.6-5.9,5.9-5.9h1303.5c3.2,0,5.9,2.6,5.9,5.9
					v75.2C2728.6,1988.7,2726,1991.3,2722.8,1991.3z"/>
				<path class="st7" d="M2724.4,2125.4H1417.7c-2.4,0-4.3-1.9-4.3-4.3v-78.3c0-2.4,1.9-4.3,4.3-4.3h1306.7c2.4,0,4.3,1.9,4.3,4.3
					v78.3C2728.6,2123.5,2726.7,2125.4,2724.4,2125.4z"/>
				<path class="st7" d="M2752.1,2891H1419.7c-2.9,0-5.2-2.3-5.2-5.2v-76.6c0-2.9,2.3-5.2,5.2-5.2h1332.4c2.9,0,5.2,2.3,5.2,5.2
					v76.6C2757.2,2888.7,2754.9,2891,2752.1,2891z"/>
				<path class="st2" d="M2695.7,1813.4H1444.9c-17.4,0-31.5-14.1-31.5-31.5v-468.3c0-17.4,14.1-31.5,31.5-31.5h1229.5
					c16.9,0,30.7,13.3,31.5,30.1l21.2,468.3C2728,1798.4,2713.6,1813.4,2695.7,1813.4z"/>
				<path class="st8" d="M2696.4,1818.4H1445.7c-20.1,0-36.5-16.4-36.5-36.5v-468.3c0-20.1,16.4-36.5,36.5-36.5h1229.5
					c19.6,0,35.6,15.3,36.5,34.9l21.2,468.3c0.5,10.1-3.1,19.6-10.1,26.9C2715.8,1814.4,2706.5,1818.4,2696.4,1818.4z M1445.7,1287
					c-14.6,0-26.5,11.9-26.5,26.5v468.3c0,14.6,11.9,26.5,26.5,26.5h1250.7c7.3,0,14.1-2.9,19.2-8.2c5.1-5.3,7.7-12.2,7.3-19.5
					l-21.2-468.3c-0.6-14.2-12.3-25.3-26.5-25.3H1445.7z"/>
				<path class="st2" d="M2715.6,2751.1H1454.5c-22.1,0-40-17.9-40-40v-451.4c0-22.1,17.9-40,40-40h1243.6c21.5,0,39.1,17,40,38.4
					l17.5,451.4C2756.5,2732.2,2738.3,2751.1,2715.6,2751.1z"/>
				<path class="st8" d="M2715.6,2756.1H1454.5c-24.8,0-45-20.2-45-45v-451.4c0-24.8,20.2-45,45-45h1243.6c24.3,0,44,19,45,43.3
					l17.5,451.4c0.5,12.3-4,24-12.5,32.9C2739.5,2751.2,2728,2756.1,2715.6,2756.1z M1454.5,2224.7c-19.3,0-35,15.7-35,35v451.4
					c0,19.3,15.7,35,35,35h1261.1c9.6,0,18.6-3.8,25.2-10.7c6.7-6.9,10.1-16,9.7-25.6l-17.5-451.4c-0.7-18.9-16.1-33.6-35-33.6
					H1454.5z"/>
				
					<rect x="1802.4" y="1282" transform="matrix(0.9999 -1.661205e-02 1.661205e-02 0.9999 -25.461 30.2378)" class="st8" width="10" height="531.4"/>
				
					<rect x="2286.3" y="1281.9" transform="matrix(0.9996 -2.698924e-02 2.698924e-02 0.9996 -40.9364 62.4046)" class="st8" width="10" height="531.6"/>
				
					<rect x="2063.7" y="812.4" transform="matrix(3.515930e-03 -1 1 3.515930e-03 597.7289 3527.3044)" class="st8" width="10" height="1302.7"/>
				<rect x="1417.4" y="1645.3" class="st8" width="1302.7" height="10"/>
				
					<rect x="1540.6" y="2480.4" transform="matrix(1.237423e-02 -0.9999 0.9999 1.237423e-02 -701.2993 4260.79)" class="st8" width="531.4" height="10"/>
				<rect x="1417.4" y="2343.8" class="st8" width="1325.9" height="10"/>
				<rect x="1417.4" y="2466.3" class="st8" width="1329.2" height="10"/>
				
					<rect x="2078.3" y="1942.5" transform="matrix(1.247113e-02 -0.9999 0.9999 1.247113e-02 -553.8143 4661.9429)" class="st8" width="10" height="1337.7"/>
			</g>
			<linearGradient id="SVGID_6_" gradientUnits="userSpaceOnUse" x1="2292.575" y1="288.4402" x2="1627.1934" y2="1163.7341">
				<stop  offset="0" style="stop-color:#2B3582"/>
				<stop  offset="1" style="stop-color:#150E42"/>
			</linearGradient>
			<path class="st9" d="M2131.2,504.4c-52.3-36.4-97.7-35.6-129.7-26.2c-29.2,8.6-48.1,36.8-45.3,67.1l13.8,150.6l164.1,14.6
				C2134.1,710.4,2233.7,575.7,2131.2,504.4z M2059,625.8c-22.6,0-40.9-18.3-40.9-40.9c0-22.6,18.3-40.9,40.9-40.9
				c22.6,0,40.9,18.3,40.9,40.9C2099.9,607.5,2081.6,625.8,2059,625.8z"/>
			<path class="st8" d="M1986.4,632.5c-2,0-3.8-1.5-3.9-3.6l-2.2-24c-0.2-2.2,1.4-4.1,3.6-4.3c2.2-0.2,4.1,1.4,4.3,3.6l2.2,24
				c0.2,2.2-1.4,4.1-3.6,4.3C1986.6,632.5,1986.5,632.5,1986.4,632.5z M1982.1,585.5c-2,0-3.8-1.5-3.9-3.6l-1.7-18.2
				c-2.6-28.9,15.5-55.7,43.2-63.9c19.6-5.8,39.8-6.6,60-2.5c2.1,0.4,3.5,2.5,3.1,4.7c-0.4,2.1-2.5,3.5-4.7,3.1
				c-18.9-3.9-37.8-3.1-56.2,2.3c-24,7.1-39.8,30.5-37.5,55.6l1.7,18.2c0.2,2.2-1.4,4.1-3.6,4.3
				C1982.3,585.5,1982.2,585.5,1982.1,585.5z"/>
			<linearGradient id="SVGID_7_" gradientUnits="userSpaceOnUse" x1="2365.5623" y1="343.9219" x2="1700.1799" y2="1219.2167">
				<stop  offset="0" style="stop-color:#2B3582"/>
				<stop  offset="1" style="stop-color:#150E42"/>
			</linearGradient>
			<path class="st10" d="M1746,793.1v-75.7c0-26.1,21.7-47.1,47.8-46.2l521.9,17.9c23.2,0.8,41.9,19.1,43.3,42.2l4.4,72.7
				L1746,793.1z"/>
			<path class="st8" d="M1940.6,699.8h-22.4c-2.2,0-4-1.8-4-4c0-2.2,1.8-4,4-4h22.4c2.2,0,4,1.8,4,4
				C1944.5,698,1942.8,699.8,1940.6,699.8z"/>
			<path class="st8" d="M1774.2,769.3c-2.2,0-4-1.8-4-4v-30.6c0-23.7,19.2-42.9,42.9-42.9h82.5c2.2,0,4,1.8,4,4c0,2.2-1.8,4-4,4
				h-82.5c-19.3,0-35,15.7-35,35v30.6C1778.2,767.6,1776.4,769.3,1774.2,769.3z"/>
			<linearGradient id="SVGID_8_" gradientUnits="userSpaceOnUse" x1="2281.7126" y1="397.4626" x2="1822.2803" y2="1241.0736">
				<stop  offset="0" style="stop-color:#53D8FF"/>
				<stop  offset="1" style="stop-color:#3840F7"/>
			</linearGradient>
			<path class="st11" d="M1533.3,812.2c1.3-26.2,22.9-46.8,49.1-46.8l912.6,0c32.8,0,60.9,23.6,66.5,55.9l0.8,4.5
				c6.1,35.4-21.1,67.8-57.1,67.8h-936.3c-21.5,0-38.7-18-37.6-39.5L1533.3,812.2z"/>
		</g>
		<g>
			<g>
				<linearGradient id="SVGID_9_" gradientUnits="userSpaceOnUse" x1="1290.3844" y1="2326.5432" x2="867.7763" y2="3004.2383">
					<stop  offset="0" style="stop-color:#FDF53F"/>
					<stop  offset="1" style="stop-color:#D93C65"/>
				</linearGradient>
				<path class="st12" d="M1406.3,2646.3H837.8c-3.1,0-5.6-2.5-5.6-5.6v-88.4c0-3.1,2.5-5.6,5.6-5.6h568.5c3.1,0,5.6,2.5,5.6,5.6
					v88.4C1411.9,2643.8,1409.4,2646.3,1406.3,2646.3z"/>
			</g>
			<g>
				<linearGradient id="SVGID_10_" gradientUnits="userSpaceOnUse" x1="1290.3844" y1="2220.8784" x2="867.7763" y2="2898.5737">
					<stop  offset="0" style="stop-color:#FDF53F"/>
					<stop  offset="1" style="stop-color:#D93C65"/>
				</linearGradient>
				<path class="st13" d="M1406.3,2540.6H837.8c-3.1,0-5.6-2.5-5.6-5.6v-88.4c0-3.1,2.5-5.6,5.6-5.6h568.5c3.1,0,5.6,2.5,5.6,5.6
					v88.4C1411.9,2538.1,1409.4,2540.6,1406.3,2540.6z"/>
			</g>
			<g>
				<linearGradient id="SVGID_11_" gradientUnits="userSpaceOnUse" x1="1290.3844" y1="2433.9783" x2="867.7764" y2="3111.6736">
					<stop  offset="0" style="stop-color:#FDF53F"/>
					<stop  offset="1" style="stop-color:#D93C65"/>
				</linearGradient>
				<path class="st14" d="M1406.3,2753.7H837.8c-3.1,0-5.6-2.5-5.6-5.6v-88.4c0-3.1,2.5-5.6,5.6-5.6h568.5c3.1,0,5.6,2.5,5.6,5.6
					v88.4C1411.9,2751.2,1409.4,2753.7,1406.3,2753.7z"/>
			</g>
			<g>
				<linearGradient id="SVGID_12_" gradientUnits="userSpaceOnUse" x1="1290.3844" y1="2541.4133" x2="867.7764" y2="3219.1086">
					<stop  offset="0" style="stop-color:#FDF53F"/>
					<stop  offset="1" style="stop-color:#D93C65"/>
				</linearGradient>
				<path class="st15" d="M1406.3,2861.2H837.8c-3.1,0-5.6-2.5-5.6-5.6v-88.4c0-3.1,2.5-5.6,5.6-5.6h568.5c3.1,0,5.6,2.5,5.6,5.6
					v88.4C1411.9,2858.7,1409.4,2861.2,1406.3,2861.2z"/>
			</g>
			<g>
				<linearGradient id="SVGID_13_" gradientUnits="userSpaceOnUse" x1="1290.3846" y1="2648.8484" x2="867.776" y2="3326.5447">
					<stop  offset="0" style="stop-color:#FDF53F"/>
					<stop  offset="1" style="stop-color:#D93C65"/>
				</linearGradient>
				<path class="st16" d="M1406.3,2968.6H837.8c-3.1,0-5.6-2.5-5.6-5.6v-88.4c0-3.1,2.5-5.6,5.6-5.6h568.5c3.1,0,5.6,2.5,5.6,5.6
					v88.4C1411.9,2966.1,1409.4,2968.6,1406.3,2968.6z"/>
			</g>
			<g>
				<linearGradient id="SVGID_14_" gradientUnits="userSpaceOnUse" x1="1290.3846" y1="2753.0549" x2="867.776" y2="3430.7512">
					<stop  offset="0" style="stop-color:#FDF53F"/>
					<stop  offset="1" style="stop-color:#D93C65"/>
				</linearGradient>
				<path class="st17" d="M1406.3,3072.8H837.8c-3.1,0-5.6-2.5-5.6-5.6v-88.4c0-3.1,2.5-5.6,5.6-5.6h568.5c3.1,0,5.6,2.5,5.6,5.6
					v88.4C1411.9,3070.3,1409.4,3072.8,1406.3,3072.8z"/>
			</g>
			<g>
				<linearGradient id="SVGID_15_" gradientUnits="userSpaceOnUse" x1="1290.3844" y1="2857.2622" x2="867.7763" y2="3534.9575">
					<stop  offset="0" style="stop-color:#FDF53F"/>
					<stop  offset="1" style="stop-color:#D93C65"/>
				</linearGradient>
				<path class="st18" d="M1406.3,3177H837.8c-3.1,0-5.6-2.5-5.6-5.6V3083c0-3.1,2.5-5.6,5.6-5.6h568.5c3.1,0,5.6,2.5,5.6,5.6v88.4
					C1411.9,3174.5,1409.4,3177,1406.3,3177z"/>
			</g>
		</g>
		<g>
			<g>
				<linearGradient id="SVGID_16_" gradientUnits="userSpaceOnUse" x1="1898.5565" y1="2542.5266" x2="1475.9485" y2="3220.2222">
					<stop  offset="0" style="stop-color:#FDF53F"/>
					<stop  offset="1" style="stop-color:#D93C65"/>
				</linearGradient>
				<path class="st19" d="M2014.5,2862.3H1446c-3.1,0-5.6-2.5-5.6-5.6v-88.4c0-3.1,2.5-5.6,5.6-5.6h568.5c3.1,0,5.6,2.5,5.6,5.6
					v88.4C2020.1,2859.8,2017.6,2862.3,2014.5,2862.3z"/>
			</g>
			<g>
				<linearGradient id="SVGID_17_" gradientUnits="userSpaceOnUse" x1="1898.5568" y1="2649.9619" x2="1475.9481" y2="3327.658">
					<stop  offset="0" style="stop-color:#FDF53F"/>
					<stop  offset="1" style="stop-color:#D93C65"/>
				</linearGradient>
				<path class="st20" d="M2014.5,2969.7H1446c-3.1,0-5.6-2.5-5.6-5.6v-88.4c0-3.1,2.5-5.6,5.6-5.6h568.5c3.1,0,5.6,2.5,5.6,5.6
					v88.4C2020.1,2967.2,2017.6,2969.7,2014.5,2969.7z"/>
			</g>
			<g>
				<linearGradient id="SVGID_18_" gradientUnits="userSpaceOnUse" x1="1898.5568" y1="2754.1682" x2="1475.9481" y2="3431.8645">
					<stop  offset="0" style="stop-color:#FDF53F"/>
					<stop  offset="1" style="stop-color:#D93C65"/>
				</linearGradient>
				<path class="st21" d="M2014.5,3073.9H1446c-3.1,0-5.6-2.5-5.6-5.6v-88.4c0-3.1,2.5-5.6,5.6-5.6h568.5c3.1,0,5.6,2.5,5.6,5.6
					v88.4C2020.1,3071.4,2017.6,3073.9,2014.5,3073.9z"/>
			</g>
			<g>
				<linearGradient id="SVGID_19_" gradientUnits="userSpaceOnUse" x1="1898.5565" y1="2858.3755" x2="1475.9484" y2="3536.0708">
					<stop  offset="0" style="stop-color:#FDF53F"/>
					<stop  offset="1" style="stop-color:#D93C65"/>
				</linearGradient>
				<path class="st22" d="M2014.5,3178.1H1446c-3.1,0-5.6-2.5-5.6-5.6v-88.4c0-3.1,2.5-5.6,5.6-5.6h568.5c3.1,0,5.6,2.5,5.6,5.6
					v88.4C2020.1,3175.6,2017.6,3178.1,2014.5,3178.1z"/>
			</g>
		</g>
		<g>
			<g>
				
					<linearGradient id="SVGID_20_" gradientUnits="userSpaceOnUse" x1="-749.0494" y1="2951.9634" x2="-1385.7877" y2="3827.4775" gradientTransform="matrix(-1 0 0 1 1856.4302 0)">
					<stop  offset="0" style="stop-color:#233894"/>
					<stop  offset="0.9964" style="stop-color:#DD397A"/>
				</linearGradient>
				<polygon class="st23" points="2216.3,3217.1 3211.6,3217.1 3211.6,2985.1 2216.3,2985.1 				"/>
				
					<linearGradient id="SVGID_21_" gradientUnits="userSpaceOnUse" x1="-284.5576" y1="2369.207" x2="-1170.3195" y2="3582.1145" gradientTransform="matrix(-1 0 0 1 1856.4302 0)">
					<stop  offset="0" style="stop-color:#233894"/>
					<stop  offset="0.9964" style="stop-color:#DD397A"/>
				</linearGradient>
				<path class="st24" d="M2203.9,3202.2h1020.7c4.3,0,7.7-3.5,7.7-7.7v-81.3H2198.7v83.9
					C2198.7,3199.9,2201.1,3202.2,2203.9,3202.2z"/>
				
					<linearGradient id="SVGID_22_" gradientUnits="userSpaceOnUse" x1="-347.0471" y1="2352.7986" x2="-1233.3289" y2="3566.418" gradientTransform="matrix(-1 0 0 1 1856.4302 0)">
					<stop  offset="0" style="stop-color:#233894"/>
					<stop  offset="0.9964" style="stop-color:#DD397A"/>
				</linearGradient>
				<path class="st25" d="M2206.4,3101.1h1016.3c5.3,0,9.6-4.3,9.6-9.6V3012H2198.7v81.4C2198.7,3097.6,2202.2,3101.1,2206.4,3101.1
					z"/>
				
					<linearGradient id="SVGID_23_" gradientUnits="userSpaceOnUse" x1="-772.6725" y1="1891.8846" x2="-865.7816" y2="3084.8499" gradientTransform="matrix(-1 0 0 1 1856.4302 0)">
					<stop  offset="0" style="stop-color:#233894"/>
					<stop  offset="0.9964" style="stop-color:#DD397A"/>
				</linearGradient>
				<path class="st26" d="M2198.7,3012h1033.6v-25.5c0-4.4-3.5-7.9-7.9-7.9H2206.7c-4.4,0-8,3.6-8,8V3012z"/>
			</g>
			<g>
				
					<linearGradient id="SVGID_24_" gradientUnits="userSpaceOnUse" x1="527.7639" y1="-2430.7649" x2="1423.1555" y2="-1370.5178" gradientTransform="matrix(-0.4373 -0.8993 -0.8993 0.4373 266.7716 4924.9434)">
					<stop  offset="0" style="stop-color:#233894"/>
					<stop  offset="0.9964" style="stop-color:#DD397A"/>
				</linearGradient>
				<path class="st27" d="M1290.3,3089c-33.5,16.3-45.3,61-26.4,99.9c18.9,38.9,61.4,57.2,94.9,41s45.3-61,26.4-99.9
					C1366.3,3091.1,1323.8,3072.7,1290.3,3089z"/>
				
					<linearGradient id="SVGID_25_" gradientUnits="userSpaceOnUse" x1="381.7973" y1="2805.5632" x2="317.3509" y2="3241.8142" gradientTransform="matrix(-0.9989 -4.690000e-02 -4.690000e-02 0.9989 1896.4362 301.738)">
					<stop  offset="0" style="stop-color:#2B3582"/>
					<stop  offset="1" style="stop-color:#150E42"/>
				</linearGradient>
				<path class="st28" d="M1345,3107.2l33.3,68.5c1.5,3.1,5.3,4.4,8.4,2.9l40.8-19.9c3.1-1.5,4.4-5.3,2.9-8.4l-33.3-68.5
					c-1.5-3.1-5.3-4.4-8.4-2.9l-40.8,19.9C1344.8,3100.3,1343.5,3104.1,1345,3107.2z"/>
				
					<linearGradient id="SVGID_26_" gradientUnits="userSpaceOnUse" x1="796.4636" y1="3032.8291" x2="-672.0921" y2="2317.6038" gradientTransform="matrix(-0.9989 -4.690000e-02 -4.690000e-02 0.9989 1896.4362 301.738)">
					<stop  offset="0" style="stop-color:#233894"/>
					<stop  offset="0.9964" style="stop-color:#DD397A"/>
				</linearGradient>
				<path class="st29" d="M1388.5,3072.1c6.2,31.6,20.2,59.8,41.5,84.9c11.5,13.6,30,19.6,48.4,15.9
					c175.7-35.3,543.9-262.9,901.5-461.7c23.7-13.2,40.1-28.1,28.9-51.1l-24.7-50.7c-11.1-22.8-37.7-10-62.6,0.3
					c-378.3,155.4-779.5,290.9-917.2,416.2C1391.1,3037.9,1385.3,3055.5,1388.5,3072.1z"/>
				
					<linearGradient id="SVGID_27_" gradientUnits="userSpaceOnUse" x1="-609.4321" y1="2311.1084" x2="-759.264" y2="2889.2625" gradientTransform="matrix(-0.9989 -4.690000e-02 -4.690000e-02 0.9989 1896.4362 301.738)">
					<stop  offset="0" style="stop-color:#2B3582"/>
					<stop  offset="1" style="stop-color:#150E42"/>
				</linearGradient>
				<path class="st30" d="M2327.3,2558.6l82.8,170.2c1.4,3,5,4.2,8,2.8l42.2-20.5c3-1.4,4.2-5,2.8-8l-82.8-170.2c-1.4-3-5-4.2-8-2.8
					l-42.2,20.5C2327,2552,2325.8,2555.6,2327.3,2558.6z"/>
				
					<linearGradient id="SVGID_28_" gradientUnits="userSpaceOnUse" x1="-910.5688" y1="2401.835" x2="-911.8969" y2="2678.0342" gradientTransform="matrix(-1 0 0 1 1856.4302 0)">
					<stop  offset="0" style="stop-color:#2B3582"/>
					<stop  offset="1" style="stop-color:#150E42"/>
				</linearGradient>
				<path class="st31" d="M2699.4,2386.7l82.8,170.2c1.4,3,5,4.2,8,2.8l42.2-20.5c3-1.4,4.2-5,2.8-8l-82.8-170.2c-1.4-3-5-4.2-8-2.8
					l-42.2,20.5C2699.2,2380.2,2698,2383.7,2699.4,2386.7z"/>
				
					<linearGradient id="SVGID_29_" gradientUnits="userSpaceOnUse" x1="5.8766" y1="1534.389" x2="-1693.1559" y2="2981.5964" gradientTransform="matrix(-0.9989 -4.690000e-02 -4.690000e-02 0.9989 1896.4362 301.738)">
					<stop  offset="0" style="stop-color:#233894"/>
					<stop  offset="0.9964" style="stop-color:#DD397A"/>
				</linearGradient>
				<polygon class="st32" points="2290,2389.5 2554.6,2933.5 2923.2,2754.3 2658.6,2210.2 				"/>
				
					<linearGradient id="SVGID_30_" gradientUnits="userSpaceOnUse" x1="807.9992" y1="-3284.4426" x2="631.8313" y2="-2159.5476" gradientTransform="matrix(-0.4373 -0.8993 -0.8993 0.4373 266.7716 4924.9434)">
					<stop  offset="0" style="stop-color:#233894"/>
					<stop  offset="0.9964" style="stop-color:#DD397A"/>
				</linearGradient>
				<polygon class="st33" points="2540.6,2904.8 2573.9,2973.2 2942.5,2794 2909.2,2725.6 				"/>
				
					<linearGradient id="SVGID_31_" gradientUnits="userSpaceOnUse" x1="-927.8073" y1="2056.6042" x2="-977.1983" y2="2542.2852" gradientTransform="matrix(-0.9989 -4.690000e-02 -4.690000e-02 0.9989 1896.4362 301.738)">
					<stop  offset="0" style="stop-color:#A737D5"/>
					<stop  offset="1" style="stop-color:#EF497A"/>
				</linearGradient>
				<path class="st34" d="M2558.9,2942.3l16.5,34c5.1,10.4,16.9,15.6,28,12.3c114.9-34.1,226.1-87.3,333.1-162.2
					c9.4-6.6,12.6-19,7.6-29.2l-16.6-34.1L2558.9,2942.3z"/>
				
					<linearGradient id="SVGID_32_" gradientUnits="userSpaceOnUse" x1="-479.708" y1="2341.8669" x2="-1221.6903" y2="2538.8704" gradientTransform="matrix(-0.9989 -4.690000e-02 -4.690000e-02 0.9989 1896.4362 301.738)">
					<stop  offset="0" style="stop-color:#233894"/>
					<stop  offset="0.9964" style="stop-color:#DD397A"/>
				</linearGradient>
				<path class="st35" d="M2522,2891.8l13.1,26.9c1.4,2.9,5,4.2,7.9,2.7l384.4-186.9c2.9-1.4,4.2-5,2.7-7.9l-13.1-26.9
					c-1.4-2.9-5-4.2-7.9-2.7l-384.4,186.9C2521.8,2885.3,2520.6,2888.9,2522,2891.8z"/>
				
					<linearGradient id="SVGID_33_" gradientUnits="userSpaceOnUse" x1="-904.4073" y1="2053.4377" x2="-954.4651" y2="2545.6743" gradientTransform="matrix(-0.9989 -4.690000e-02 -4.690000e-02 0.9989 1896.4362 301.738)">
					<stop  offset="0" style="stop-color:#A737D5"/>
					<stop  offset="1" style="stop-color:#EF497A"/>
				</linearGradient>
				<path class="st36" d="M2523.8,2895.4l9.6,19.8c1.1,2.2,3.7,3.1,5.8,2l387.2-188.3c2.2-1.1,3.1-3.7,2-5.8l-9.6-19.8
					c-1.1-2.2-3.7-3.1-5.8-2l-387.2,188.3C2523.6,2890.6,2522.7,2893.2,2523.8,2895.4z"/>
				
					<linearGradient id="SVGID_34_" gradientUnits="userSpaceOnUse" x1="7580.1919" y1="-3278.9048" x2="7404.0239" y2="-2154.0093" gradientTransform="matrix(0.4373 0.8993 -0.8993 0.4373 -3667.3142 -3164.8772)">
					<stop  offset="0" style="stop-color:#233894"/>
					<stop  offset="0.9964" style="stop-color:#DD397A"/>
				</linearGradient>
				<polygon class="st37" points="2287.9,2385 2254.6,2316.6 2623.2,2137.4 2656.5,2205.8 				"/>
				
					<linearGradient id="SVGID_35_" gradientUnits="userSpaceOnUse" x1="-850.4444" y1="1602.1036" x2="-570.5643" y2="1997.2288" gradientTransform="matrix(-0.9989 -4.690000e-02 -4.690000e-02 0.9989 1896.4362 301.738)">
					<stop  offset="0" style="stop-color:#A737D5"/>
					<stop  offset="1" style="stop-color:#EF497A"/>
				</linearGradient>
				<path class="st38" d="M2269.6,2347.5l-16.5-34c-5.1-10.4-1.8-22.9,7.6-29.6c97.8-69.3,208.3-123.9,333.2-161.9
					c10.9-3.3,22.7,1.8,27.7,12.1l16.6,34.1L2269.6,2347.5z"/>
				
					<linearGradient id="SVGID_36_" gradientUnits="userSpaceOnUse" x1="-587.149" y1="1708.1918" x2="-728.1243" y2="2127.4326" gradientTransform="matrix(-0.9989 -4.690000e-02 -4.690000e-02 0.9989 1896.4362 301.738)">
					<stop  offset="0" style="stop-color:#233894"/>
					<stop  offset="0.9964" style="stop-color:#DD397A"/>
				</linearGradient>
				<path class="st39" d="M2286.6,2407.7l-13.1-26.9c-1.4-2.9-0.2-6.5,2.7-7.9l384.4-186.9c2.9-1.4,6.5-0.2,7.9,2.7l13.1,26.9
					c1.4,2.9,0.2,6.5-2.7,7.9l-384.4,186.9C2291.6,2411.9,2288.1,2410.7,2286.6,2407.7z"/>
				
					<linearGradient id="SVGID_37_" gradientUnits="userSpaceOnUse" x1="-906.8446" y1="1638.5869" x2="-624.9821" y2="2036.5106" gradientTransform="matrix(-0.9989 -4.690000e-02 -4.690000e-02 0.9989 1896.4362 301.738)">
					<stop  offset="0" style="stop-color:#A737D5"/>
					<stop  offset="1" style="stop-color:#EF497A"/>
				</linearGradient>
				<path class="st40" d="M2284.9,2404.2l-9.6-19.8c-1.1-2.2-0.2-4.8,2-5.8l387.2-188.3c2.2-1.1,4.8-0.2,5.8,2l9.6,19.8
					c1.1,2.2,0.2,4.8-2,5.8l-387.2,188.3C2288.6,2407.2,2286,2406.3,2284.9,2404.2z"/>
			</g>
		</g>
		<g>
			<g>
				<g>
					
						<linearGradient id="SVGID_38_" gradientUnits="userSpaceOnUse" x1="-2013.8647" y1="3170.7566" x2="-1893.4531" y2="3170.7566" gradientTransform="matrix(1 0 0 1 2600.7053 0)">
						<stop  offset="0" style="stop-color:#2B3582"/>
						<stop  offset="1" style="stop-color:#150E42"/>
					</linearGradient>
					<path class="st41" d="M603.6,3128.3c0,0-13.4,21.1-16.7,80.1c-0.3,5.5,4,10.2,9.6,10.2h104.6c4.2,0,7.2-4.1,5.9-8.1
						c-6.1-18.1-24.7-62.4-66-87.7L603.6,3128.3z"/>
					
						<linearGradient id="SVGID_39_" gradientUnits="userSpaceOnUse" x1="-2001.6495" y1="3114.8027" x2="-1952.8153" y2="3114.8027" gradientTransform="matrix(1 0 0 1 2600.7053 0)">
						<stop  offset="0" style="stop-color:#F9B776"/>
						<stop  offset="1" style="stop-color:#F47960"/>
					</linearGradient>
					<path class="st42" d="M599.1,3088.3l5.9,49.6c0.5,4.3,3.9,7.7,8.2,8.2c5.7,0.7,14,1.1,22.1-0.2c7.3-1.2,12.6-7.8,12.6-15.2
						v-47.9L599.1,3088.3z"/>
					
						<linearGradient id="SVGID_40_" gradientUnits="userSpaceOnUse" x1="-1757.796" y1="3168.8313" x2="-1568.8652" y2="3168.8313" gradientTransform="matrix(1 0 0 1 2600.7053 0)">
						<stop  offset="0" style="stop-color:#2B3582"/>
						<stop  offset="1" style="stop-color:#150E42"/>
					</linearGradient>
					<path class="st43" d="M862.5,3122.9c0,0-20,31.1-19.6,73.9c0.1,10.1,8.5,18.1,18.6,18.1H1024c7.6,0,10.7-9.8,4.5-14.2
						c-30.8-21.6-91.2-61.9-134.9-77.8H862.5z"/>
					
						<linearGradient id="SVGID_41_" gradientUnits="userSpaceOnUse" x1="-1754.9257" y1="3093.1182" x2="-1706.3596" y2="3093.1182" gradientTransform="matrix(1 0 0 1 2600.7053 0)">
						<stop  offset="0" style="stop-color:#F9B776"/>
						<stop  offset="1" style="stop-color:#F47960"/>
					</linearGradient>
					<path class="st44" d="M845.8,3069.3l12.6,61.3c1.4,6.9,8.1,11.5,15,9.9c4.2-0.9,9.1-2.7,14.3-6c5-3.1,7.5-9,6.5-14.8
						l-13.1-74.3L845.8,3069.3z"/>
					
						<linearGradient id="SVGID_42_" gradientUnits="userSpaceOnUse" x1="-2031.9928" y1="2662.3271" x2="-1700.9044" y2="2662.3271" gradientTransform="matrix(1 0 0 1 2600.7053 0)">
						<stop  offset="0" style="stop-color:#2B3582"/>
						<stop  offset="1" style="stop-color:#150E42"/>
					</linearGradient>
					<path class="st45" d="M622.2,2217.1c0,0-43.9,38.7-52.2,85.3c-8.3,46.6,23.4,803.3,23.4,803.3s43.9,7.3,66.5-6.4
						c0,0,26.8-491.1,47.2-604.6c0,0,107,508.8,136.6,600.7c0,0,42.3,5.1,55.9-2.9c0,0-28-659.5-63.2-776.7L622.2,2217.1z"/>
					<path class="st46" d="M706,2478.3c0.4,0,0.7,0,1.1-0.1c2.4-0.6,3.8-3,3.1-5.4l-18.6-71.5c-0.3-1.1-1-2-1.9-2.6l-40.3-25.8
						c-2.1-1.3-4.8-0.7-6.1,1.3c-1.3,2-0.7,4.8,1.3,6.1l38.8,24.9l18.2,69.9C702.2,2477,704,2478.3,706,2478.3z"/>
					
						<linearGradient id="SVGID_43_" gradientUnits="userSpaceOnUse" x1="67.0689" y1="1299.6659" x2="-543.0967" y2="2623.011" gradientTransform="matrix(1 0 0 1 1195.8167 0)">
						<stop  offset="0" style="stop-color:#53D8FF"/>
						<stop  offset="1" style="stop-color:#3840F7"/>
					</linearGradient>
					<path class="st47" d="M1055.4,1779.8c-184.8-15.3-233.1,22.9-233.1,22.9l88.8,140.2c0,0,181.6-3.6,311.7-103.9
						c-24.3-26.2-41.3-55.2-52.1-77.8C1137.2,1775.2,1098.5,1783.4,1055.4,1779.8z"/>
					
						<linearGradient id="SVGID_44_" gradientUnits="userSpaceOnUse" x1="-1429.9893" y1="1671.056" x2="-1249.4954" y2="1671.056" gradientTransform="matrix(1 0 0 1 2600.7053 0)">
						<stop  offset="0" style="stop-color:#F9B776"/>
						<stop  offset="1" style="stop-color:#F47960"/>
					</linearGradient>
					<path class="st48" d="M1344.8,1508.5c-0.2-5.9-8.3-7.5-10.8-2.2l-23.6,50.3c-4.6,9.7-6,20.6-4.2,31.2l8.3,29.3
						c2.5,14.3-1.3,28.9-10.3,40.2c-21.7,27.1-67.8,76.6-133.5,103.8c10.8,22.6,27.8,51.5,52.1,77.8c47.7-36.8,88.6-86.6,110.9-154
						c10.7-3.3,17.9-13.4,17.4-24.6L1344.8,1508.5z"/>
					
						<linearGradient id="SVGID_45_" gradientUnits="userSpaceOnUse" x1="-121.221" y1="1912.698" x2="-1476.2642" y2="2982.4705" gradientTransform="matrix(1 0 0 1 1195.8167 0)">
						<stop  offset="0" style="stop-color:#53D8FF"/>
						<stop  offset="1" style="stop-color:#3840F7"/>
					</linearGradient>
					<path class="st49" d="M1116.3,1861.1c-65.1-70.1-189-101.8-260.7-114.8c-31.4-5.7-62.4,11.8-73.5,41.7
						c-32.3,86.8-120.1,312.6-137.1,351.4c-14,31.8-28.5,62.9-37.8,82.4c-5.5,11.6-0.7,25.5,10.9,31.1c60.4,29.1,169,62,213,74.9
						c9.7,2.8,19.3-4.4,19.3-14.5c0-8.6,2.3-17,6.7-24.3l166.8-277.9c103.9,115.2,195,125.8,264.9,100.6
						c-11.8-36.3-19.5-72.7-23.1-109.2C1162.2,1984.6,1116.3,1861.1,1116.3,1861.1z"/>
					
						<linearGradient id="SVGID_46_" gradientUnits="userSpaceOnUse" x1="-977.4493" y1="1661.9554" x2="-1418.8607" y2="2211.1135" gradientTransform="matrix(1 0 0 1 2600.7053 0)">
						<stop  offset="0" style="stop-color:#F9B776"/>
						<stop  offset="1" style="stop-color:#F47960"/>
					</linearGradient>
					<path class="st50" d="M1465.4,1962.6l-33.8-19.7c-60.4,41.4-124.8,66.5-166.1,59.5c3.7,36.5,11.4,72.9,23.1,109.2
						C1380.8,2078.3,1465.4,1962.6,1465.4,1962.6z"/>
					
						<linearGradient id="SVGID_47_" gradientUnits="userSpaceOnUse" x1="-989.3929" y1="1837.4976" x2="-1241.3792" y2="2150.9927" gradientTransform="matrix(1 0 0 1 2600.7053 0)">
						<stop  offset="0" style="stop-color:#F9B776"/>
						<stop  offset="1" style="stop-color:#F47960"/>
					</linearGradient>
					<path class="st51" d="M1625.7,1969.7c-21-11.4-83.3-21.3-83.3-21.3s-71.6-41.9-92.2-50.2c-17.1-6.9-24.5,18.8-26.5,27.6
						c-0.4,1.8-0.6,2.9-0.6,2.9l2.6,17l72.4,32.2c15.5,6.9,32.6,9.4,49.4,7.2l77.3-10.1c1.2-0.2,2.2-1.1,2.5-2.3
						C1627.4,1971.6,1626.8,1970.3,1625.7,1969.7z"/>
					
						<linearGradient id="SVGID_48_" gradientUnits="userSpaceOnUse" x1="-1460.0403" y1="1417.1802" x2="-1837.7549" y2="2111.1936" gradientTransform="matrix(1 0 0 1 2600.7053 0)">
						<stop  offset="0" style="stop-color:#F9B776"/>
						<stop  offset="1" style="stop-color:#F47960"/>
					</linearGradient>
					<path class="st52" d="M954.2,1617.5l-55.4,135.2c0,0,63.7,44.1,114.9,39.9l27.7-121.6L954.2,1617.5z"/>
					<g>
						
							<linearGradient id="SVGID_49_" gradientUnits="userSpaceOnUse" x1="-1351.7108" y1="2685.4434" x2="-1518.639" y2="2906.2759" gradientTransform="matrix(0.817 -0.5767 0.5767 0.817 577.2775 -1428.4956)">
							<stop  offset="0" style="stop-color:#F9B776"/>
							<stop  offset="1" style="stop-color:#F47960"/>
						</linearGradient>
						<path class="st53" d="M1047.8,1525.4c1.3,1.8,40.1,142,40.1,142l-80.5,20.5l-56.5-127.5
							C950.8,1560.4,1026.6,1495.3,1047.8,1525.4z"/>
						<linearGradient id="SVGID_50_" gradientUnits="userSpaceOnUse" x1="1035.8083" y1="1318.9496" x2="970.7866" y2="1979.1738">
							<stop  offset="0" style="stop-color:#2B3582"/>
							<stop  offset="1" style="stop-color:#150E42"/>
						</linearGradient>
						<path class="st54" d="M981.2,1579.8l24.5,69.4c0.3,0.9,0.7,1.7,1.3,2.5c3.3,4.7,16,20.1,30.9,6.3c13.6-12.6,26.2-23.9,37.8-26
							c5.2-0.9,10.3,2.3,11.7,7.4c3.5,12.7,10.9,41.6,13.5,67.7c0.5,5.3-3.1,10.1-8.3,11.1c-15.7,3-49.1,8.4-76.9,6.4
							c-3.8-0.3-7.1-2.5-8.7-6c-7.7-16.8-31.2-67.6-39.9-80.8c-8.2-12.4-28.3-12-36.8-11.3c-2.8,0.2-5.5-0.6-7.6-2.5
							c-7.4-6.5-21.4-23-1.7-42.8c4.1-4.1,4-10.8-0.2-14.8c-8.5-8-17.6-22.1-3.4-39.7c14.4-17.8,33.3-15,45-10.8
							c4.7,1.7,9.8-0.3,12.4-4.6c1.5-2.4,4-4.3,8.4-3.9c5.9,0.5,10.9-4.4,10.8-10.4c-0.2-11.4,3.9-25.9,23.7-32
							c35.2-11,57.1,23,59.3,48.4c2.2,25.4-36.6,35.1-59.5,33.4c-17.4-1.3-30.2,15.9-35.4,24.2
							C980.5,1573.6,980.1,1576.8,981.2,1579.8z"/>
						
							<linearGradient id="SVGID_51_" gradientUnits="userSpaceOnUse" x1="-1596.196" y1="2860.3257" x2="-1462.3051" y2="2722.957" gradientTransform="matrix(0.817 -0.5767 0.5767 0.817 577.2775 -1428.4956)">
							<stop  offset="0" style="stop-color:#F9B776"/>
							<stop  offset="1" style="stop-color:#F47960"/>
						</linearGradient>
						<path class="st55" d="M976.3,1662.9c0,0-5.7-44-24-46.2c-18.3-2.2-36.1,12.9-17.9,37.6C957,1685.1,976.3,1662.9,976.3,1662.9z
							"/>
					</g>
				</g>
			</g>
			<g>
				
					<linearGradient id="SVGID_52_" gradientUnits="userSpaceOnUse" x1="230.6807" y1="1103.1295" x2="-1379.8652" y2="2708.6741" gradientTransform="matrix(-1 0 0 1 1629.1962 0)">
					<stop  offset="0" style="stop-color:#2C759E"/>
					<stop  offset="1" style="stop-color:#051042"/>
				</linearGradient>
				<path class="st56" d="M2467.8,1299l6.3,536.3l1,83c0.4,10.8-8.2,20-19,20.4l-1065.5,37.6c-10.8,0.4-20-8.2-20.4-19l-4.1-82.9
					l-26.3-529.1c-0.4-10.8,11.6-32.4,35.1-31.7L2415,1250c13.6-0.8,26.9,3.9,36.9,13.2C2461.9,1272.5,2467.6,1285.4,2467.8,1299z"
					/>
				
					<linearGradient id="SVGID_53_" gradientUnits="userSpaceOnUse" x1="-182.2701" y1="1073.1792" x2="-467.3669" y2="2553.6802" gradientTransform="matrix(-1 0 0 1 1629.1962 0)">
					<stop  offset="0" style="stop-color:#9CFFFB"/>
					<stop  offset="1" style="stop-color:#9BFFFA"/>
				</linearGradient>
				<path class="st57" d="M2448.3,1902.5c0.4,10.1-7.8,18.7-18.1,19l-1015,35.8c-10.3,0.4-19.1-7.6-19.4-17.7l-28.6-571.1
					c-0.4-10.1,11.1-30.3,33.4-29.6l991.1-60.2c12.9-0.8,25.6,3.7,35.1,12.3c9.5,8.6,14.9,20.7,15.1,33.4L2448.3,1902.5z"/>
				<path class="st8" d="M2316.1,1931.3c-1.7,0-3-1.3-3.1-3c-0.1-1.7,1.3-3.1,3-3.2l113.6-4c13.8-0.5,26.8-14.6,26.4-28.4
					l-12.3-347.5c-0.1-1.7,1.3-3.1,3-3.2c1.8-0.1,3.1,1.3,3.2,3l12.3,347.5c0.6,17.3-15.1,34.2-32.3,34.8l-113.6,4
					C2316.1,1931.3,2316.1,1931.3,2316.1,1931.3z"/>
				<path class="st8" d="M1375.5,1585.9c-1.7,0-3-1.3-3.1-3l-7.4-208.3c-0.4-10.5,3.3-21.3,10.1-29.6c7.2-8.7,16.8-13.7,27.3-14.1
					l90.3-3.2c1.8-0.1,3.1,1.3,3.2,3c0.1,1.7-1.3,3.1-3,3.2l-90.3,3.2c-8.6,0.3-16.7,4.5-22.7,11.8c-5.8,7.1-9,16.4-8.7,25.5
					l7.4,208.3c0.1,1.7-1.3,3.1-3,3.2C1375.6,1585.9,1375.6,1585.9,1375.5,1585.9z"/>
				<g>
					
						<linearGradient id="SVGID_54_" gradientUnits="userSpaceOnUse" x1="933.3275" y1="1791.5486" x2="495.6651" y2="1958.0929" gradientTransform="matrix(0.9994 -3.530000e-02 3.530000e-02 0.9994 929.7158 -306.2733)">
						<stop  offset="0" style="stop-color:#E92556"/>
						<stop  offset="1" style="stop-color:#F9C342"/>
					</linearGradient>
					<path class="st58" d="M1631.5,1557.5c-0.4-10.9-9.5-19.4-20.4-19l-131.6,4.6c-10.9,0.4-19.4,9.5-19,20.4l3.5,100.1
						c0.4,10.9,9.5,19.4,20.4,19l131.6-4.6c10.9-0.4,19.4-9.5,19-20.4L1631.5,1557.5z"/>
					<g>
						<path class="st59" d="M1522.9,1639.3c-4.9,0-8.9-3.9-9.1-8.8l-1.2-33c-0.2-5,3.7-9.2,8.7-9.4l37.5-1.3c5-0.2,9.2,3.7,9.4,8.7
							l1.2,33c0.2,5-3.7,9.2-8.7,9.4l-37.5,1.3C1523.1,1639.3,1523,1639.3,1522.9,1639.3z M1559.3,1593c0,0-0.1,0-0.1,0l-37.5,1.3
							c-1.6,0.1-2.9,1.4-2.8,3l1.2,33c0,0.8,0.4,1.5,0.9,2c0.6,0.5,1.3,0.8,2.1,0.8l37.5-1.3c1.6-0.1,2.9-1.4,2.8-3l-1.2-33v0
							C1562.1,1594.2,1560.8,1593,1559.3,1593z"/>
						<g>
							<path class="st8" d="M1462,1609.9c-1.7,0-3-1.3-3.1-3c-0.1-1.7,1.3-3.1,3-3.2l54-1.9c1.7,0,3.1,1.3,3.2,3
								c0.1,1.7-1.3,3.1-3,3.2l-54,1.9C1462.1,1609.9,1462.1,1609.9,1462,1609.9z"/>
							<path class="st8" d="M1462.5,1623.4c-1.7,0-3-1.3-3.1-3c-0.1-1.7,1.3-3.1,3-3.2l54-1.9c1.8-0.1,3.1,1.3,3.2,3
								c0.1,1.7-1.3,3.1-3,3.2l-54,1.9C1462.6,1623.4,1462.5,1623.4,1462.5,1623.4z"/>
						</g>
						<g>
							<path class="st8" d="M1574.5,1605.9c-1.7,0-3-1.3-3.1-3c-0.1-1.7,1.3-3.1,3-3.2l58.5-2.1c1.8-0.1,3.1,1.3,3.2,3
								c0.1,1.7-1.3,3.1-3,3.2l-58.5,2.1C1574.6,1605.9,1574.6,1605.9,1574.5,1605.9z"/>
							<path class="st8" d="M1575,1619.4c-1.7,0-3-1.3-3.1-3c-0.1-1.7,1.3-3.1,3-3.2l58.5-2.1c1.8-0.1,3.1,1.3,3.2,3
								c0.1,1.7-1.3,3.1-3,3.2l-58.5,2.1C1575.1,1619.4,1575.1,1619.4,1575,1619.4z"/>
						</g>
						<g>
							<g>
								<path class="st8" d="M1527.8,1594.3c-1.4,0-2.6-0.9-3-2.3l-13.3-48.6c-0.5-1.6,0.5-3.3,2.2-3.8c1.6-0.5,3.3,0.5,3.8,2.2
									l13.3,48.6c0.5,1.6-0.5,3.3-2.2,3.8C1528.4,1594.2,1528.1,1594.3,1527.8,1594.3z"/>
								<path class="st8" d="M1559.2,1593.2c-0.2,0-0.4,0-0.6-0.1c-1.7-0.3-2.7-2-2.4-3.6l10.3-49.4c0.3-1.7,2-2.7,3.6-2.4
									c1.7,0.3,2.7,2,2.4,3.6l-10.3,49.4C1561.9,1592.2,1560.6,1593.2,1559.2,1593.2z"/>
							</g>
							<g>
								<path class="st8" d="M1519.5,1686.2c-0.2,0-0.4,0-0.6-0.1c-1.7-0.3-2.8-2-2.4-3.6l9.9-49.4c0.3-1.7,2-2.8,3.6-2.4
									c1.7,0.3,2.8,2,2.4,3.6l-9.9,49.4C1522.2,1685.2,1520.9,1686.2,1519.5,1686.2z"/>
								<path class="st8" d="M1574.5,1684.3c-1.3,0-2.6-0.9-3-2.2l-13.8-48.6c-0.5-1.6,0.5-3.3,2.1-3.8c1.6-0.5,3.3,0.5,3.8,2.1
									l13.8,48.6c0.5,1.6-0.5,3.3-2.1,3.8C1575,1684.2,1574.8,1684.3,1574.5,1684.3z"/>
							</g>
						</g>
					</g>
				</g>
				<linearGradient id="SVGID_55_" gradientUnits="userSpaceOnUse" x1="1556.6614" y1="1334.4651" x2="1741.7244" y2="799.2831">
					<stop  offset="0" style="stop-color:#53D8FF"/>
					<stop  offset="1" style="stop-color:#3840F7"/>
				</linearGradient>
				<path class="st60" d="M1626.3,1410.9c0.5,12.9-9.7,23.8-22.6,24.2l-146.7,5.2c-12.9,0.5-23.8-9.7-24.2-22.6l-0.1-2.7
					c-0.5-12.9,9.7-23.8,22.6-24.2l146.7-5.2c12.9-0.5,23.8,9.7,24.2,22.6L1626.3,1410.9z"/>
				<g class="st61">
					<linearGradient id="SVGID_56_" gradientUnits="userSpaceOnUse" x1="1458.4797" y1="2316.25" x2="1668.5516" y2="1035.8141">
						<stop  offset="0" style="stop-color:#53D8FF"/>
						<stop  offset="1" style="stop-color:#3840F7"/>
					</linearGradient>
					<path class="st62" d="M1652.3,1762.5c0.4,12.3-9.2,22.7-21.5,23.1l-162.4,5.7c-12.3,0.4-22.7-9.2-23.1-21.5l0-0.3
						c-0.4-12.3,9.2-22.7,21.5-23.1l162.4-5.7c12.3-0.4,22.7,9.2,23.1,21.5L1652.3,1762.5z"/>
					<linearGradient id="SVGID_57_" gradientUnits="userSpaceOnUse" x1="1685.0706" y1="2353.425" x2="1895.1425" y2="1072.989">
						<stop  offset="0" style="stop-color:#53D8FF"/>
						<stop  offset="1" style="stop-color:#3840F7"/>
					</linearGradient>
					<path class="st63" d="M1886.3,1754.3c0.4,12.3-9.2,22.7-21.5,23.1l-162.4,5.7c-12.3,0.4-22.7-9.2-23.1-21.5l0-0.3
						c-0.4-12.3,9.2-22.7,21.5-23.1l162.4-5.7c12.3-0.4,22.7,9.2,23.1,21.5L1886.3,1754.3z"/>
					<linearGradient id="SVGID_58_" gradientUnits="userSpaceOnUse" x1="1911.6614" y1="2390.6001" x2="2121.7332" y2="1110.1639">
						<stop  offset="0" style="stop-color:#53D8FF"/>
						<stop  offset="1" style="stop-color:#3840F7"/>
					</linearGradient>
					<path class="st64" d="M2120.4,1746c0.4,12.3-9.2,22.7-21.5,23.1l-162.4,5.7c-12.3,0.4-22.7-9.2-23.1-21.5l0-0.3
						c-0.4-12.3,9.2-22.7,21.5-23.1l162.4-5.7c12.3-0.4,22.7,9.2,23.1,21.5L2120.4,1746z"/>
					<linearGradient id="SVGID_59_" gradientUnits="userSpaceOnUse" x1="2142.6099" y1="2428.4897" x2="2352.6816" y2="1148.0537">
						<stop  offset="0" style="stop-color:#53D8FF"/>
						<stop  offset="1" style="stop-color:#3840F7"/>
					</linearGradient>
					<path class="st65" d="M2358.9,1737.6c0.4,12.3-9.2,22.7-21.5,23.1l-162.4,5.7c-12.3,0.4-22.7-9.2-23.1-21.5l0-0.3
						c-0.4-12.3,9.2-22.7,21.5-23.1l162.4-5.7c12.3-0.4,22.7,9.2,23.1,21.5L2358.9,1737.6z"/>
				</g>
				<g class="st61">
					<linearGradient id="SVGID_60_" gradientUnits="userSpaceOnUse" x1="1471.2141" y1="1861.9272" x2="1808.8195" y2="1861.9272">
						<stop  offset="0" style="stop-color:#9CFFFB"/>
						<stop  offset="1" style="stop-color:#9BFFFA"/>
					</linearGradient>
					<path class="st66" d="M1808.8,1856.2c0.3,9.8-7.3,18-17.1,18.4l-302,10.7c-9.8,0.3-18-7.3-18.4-17.1l0-0.5
						c-0.3-9.8,7.3-18,17.1-18.4l302-10.7c9.8-0.3,18,7.3,18.4,17.1L1808.8,1856.2z"/>
					<linearGradient id="SVGID_61_" gradientUnits="userSpaceOnUse" x1="2168.5317" y1="1831.3164" x2="2335.1038" y2="1831.3164">
						<stop  offset="0" style="stop-color:#9CFFFB"/>
						<stop  offset="1" style="stop-color:#9BFFFA"/>
					</linearGradient>
					<path class="st67" d="M2335.1,1828.6c0.3,9.8-7.3,18-17.1,18.4l-131,4.6c-9.8,0.3-18-7.3-18.4-17.1l0-0.5
						c-0.3-9.8,7.3-18,17.1-18.4l131-4.6c9.8-0.3,18,7.3,18.4,17.1L2335.1,1828.6z"/>
				</g>
			</g>
		</g>
	</g>
</g>
</svg>
